<?xml version="1.0" encoding="UTF-8" standalone="no"?>
<!DOCTYPE svg PUBLIC "-//W3C//DTD SVG 1.1//EN" "http://www.w3.org/Graphics/SVG/1.1/DTD/svg11.dtd">
<!-- Created with Vectornator (http://vectornator.io/) -->
<svg height="100%" stroke-miterlimit="10" style="fill-rule:nonzero;clip-rule:evenodd;stroke-linecap:round;stroke-linejoin:round;" version="1.1" viewBox="0 0 1024 1024" width="100%" xml:space="preserve" xmlns="http://www.w3.org/2000/svg" xmlns:xlink="http://www.w3.org/1999/xlink">
<defs>
<linearGradient gradientTransform="matrix(111.177 -255.607 255.607 111.177 566.415 941.842)" gradientUnits="userSpaceOnUse" id="LinearGradient" x1="0" x2="1" y1="0" y2="0">
<stop offset="0" stop-color="#000000"/>
<stop offset="1" stop-color="#000000" stop-opacity="0"/>
</linearGradient>
<filter color-interpolation-filters="sRGB" filterUnits="userSpaceOnUse" height="343.46" id="Filter" width="222.641" x="543.137" y="617.336">
<feGaussianBlur in="SourceGraphic" result="Blur" stdDeviation="1.25"/>
</filter>
<linearGradient gradientTransform="matrix(100.233 -183.988 183.988 100.233 578.808 881.45)" gradientUnits="userSpaceOnUse" id="LinearGradient_2" x1="0" x2="1" y1="0" y2="0">
<stop offset="0" stop-color="#000000"/>
<stop offset="1" stop-color="#000000" stop-opacity="0"/>
</linearGradient>
<filter color-interpolation-filters="sRGB" filterUnits="userSpaceOnUse" height="200.597" id="Filter_2" width="167.594" x="566.936" y="675.156">
<feGaussianBlur in="SourceGraphic" result="Blur" stdDeviation="1.25"/>
</filter>
<linearGradient gradientTransform="matrix(84.1828 -121.744 122.416 84.1944 657.258 1015.15)" gradientUnits="userSpaceOnUse" id="LinearGradient_3" x1="0" x2="1" y1="0" y2="0">
<stop offset="0" stop-color="#000000"/>
<stop offset="1" stop-color="#000000" stop-opacity="0"/>
</linearGradient>
<filter color-interpolation-filters="sRGB" filterUnits="userSpaceOnUse" height="93.6468" id="Filter_3" width="111.519" x="657.706" y="889.672">
<feGaussianBlur in="SourceGraphic" result="Blur" stdDeviation="1.25"/>
</filter>
<linearGradient gradientTransform="matrix(382.826 -683.857 683.857 382.826 338.44 744.929)" gradientUnits="userSpaceOnUse" id="LinearGradient_4" x1="0" x2="1" y1="0" y2="0">
<stop offset="0" stop-color="#000000"/>
<stop offset="1" stop-color="#000000" stop-opacity="0"/>
</linearGradient>
<filter color-interpolation-filters="sRGB" filterUnits="userSpaceOnUse" height="605.431" id="Filter_4" width="579.938" x="229.738" y="72.9738">
<feGaussianBlur in="SourceGraphic" result="Blur" stdDeviation="1.25"/>
</filter>
<linearGradient gradientTransform="matrix(387.667 -675.812 695.882 387.667 328.435 737.162)" gradientUnits="userSpaceOnUse" id="LinearGradient_5" x1="0" x2="1" y1="0" y2="0">
<stop offset="0" stop-color="#000000"/>
<stop offset="1" stop-color="#000000" stop-opacity="0"/>
</linearGradient>
<filter color-interpolation-filters="sRGB" filterUnits="userSpaceOnUse" height="601.814" id="Filter_5" width="570.833" x="214.323" y="39.7561">
<feGaussianBlur in="SourceGraphic" result="Blur" stdDeviation="1.25"/>
</filter>
<linearGradient gradientTransform="matrix(192.145 -307.61 307.61 192.145 480.812 369.687)" gradientUnits="userSpaceOnUse" id="LinearGradient_6" x1="0" x2="1" y1="0" y2="0">
<stop offset="0" stop-color="#000000"/>
<stop offset="1" stop-color="#000000" stop-opacity="0"/>
</linearGradient>
<filter color-interpolation-filters="sRGB" filterUnits="userSpaceOnUse" height="172.156" id="Filter_6" width="212.144" x="512.985" y="71.2888">
<feGaussianBlur in="SourceGraphic" result="Blur" stdDeviation="1.25"/>
</filter>
</defs>
<g id="Handle">
<path d="M617.731 620.666C607.527 619.738 596.887 621.941 587.456 627.805L569.006 639.262C548.95 651.717 540.888 676.883 549.977 698.673L657.987 957.671C652.639 938.895 665.035 914.652 689.31 899.561C716.26 882.805 747.782 883.602 761.868 900.607C762.102 900.885 762.427 901.077 762.653 901.363L657.504 649.187C650.543 632.495 634.741 622.213 617.731 620.666Z" fill="#929699" fill-rule="nonzero" opacity="1" stroke="none"/>
<path d="M617.731 620.666C607.527 619.738 596.887 621.941 587.456 627.805L569.006 639.262C548.95 651.717 540.888 676.883 549.977 698.673L657.987 957.671C652.639 938.895 665.035 914.652 689.31 899.561C716.26 882.805 747.782 883.602 761.868 900.607C762.102 900.885 762.427 901.077 762.653 901.363L657.504 649.187C650.543 632.495 634.741 622.213 617.731 620.666Z" fill="url(#LinearGradient)" fill-rule="nonzero" filter="url(#Filter)" opacity="0.15" stroke="none"/>
<path d="M641.428 678.688C630.873 677.331 619.944 679.332 610.422 685.285L592.678 696.38C572.711 708.866 564.711 733.966 573.771 755.703L622.501 872.628C620.098 853.477 633.685 831.544 657.896 819.106C685.834 804.756 717.297 808.469 730.885 826.722L731.405 826.398L683.144 710.591C675.616 692.526 659.021 680.95 641.428 678.688Z" fill="#0e72c8" fill-rule="nonzero" opacity="1" stroke="none"/>
<path d="M641.428 678.688C630.873 677.331 619.944 679.332 610.422 685.285L592.678 696.38C572.711 708.866 564.711 733.966 573.771 755.703L622.501 872.628C620.098 853.477 633.685 831.544 657.896 819.106C685.834 804.756 717.297 808.469 730.885 826.722L731.405 826.398L683.144 710.591C675.616 692.526 659.021 680.95 641.428 678.688Z" fill="url(#LinearGradient_2)" fill-rule="nonzero" filter="url(#Filter_2)" opacity="0.15" stroke="none"/>
<path d="M732.04 887.467C718.593 886.914 703.245 890.916 689.191 899.63C661.081 917.061 648.782 946.698 661.71 965.82C674.639 984.941 707.94 986.332 736.049 968.902C764.16 951.471 776.459 921.836 763.53 902.714C757.066 893.152 745.487 888.022 732.04 887.467ZM726.736 893.716C739.023 893.203 749.959 896.749 756.597 904.505C769.874 920.016 761.021 946.451 736.802 963.529C712.583 980.605 682.171 981.872 668.894 966.361C655.616 950.85 664.471 924.414 688.69 907.337C700.8 898.799 714.45 894.229 726.736 893.716Z" fill="#ffffff" fill-rule="nonzero" opacity="1" stroke="none"/>
<path d="M667.148 968.55C653.351 952.147 662.905 924.498 688.485 906.796C714.065 889.093 745.985 888.038 759.782 904.441C773.579 920.843 764.026 948.491 738.446 966.193C712.866 983.898 680.944 984.952 667.148 968.55Z" fill="#5c5f61" fill-rule="nonzero" opacity="1" stroke="none"/>
<path d="M667.148 968.55C653.351 952.147 662.905 924.498 688.485 906.796C714.065 889.093 745.985 888.038 759.782 904.441C773.579 920.843 764.026 948.491 738.446 966.193C712.866 983.898 680.944 984.952 667.148 968.55Z" fill="url(#LinearGradient_3)" fill-rule="nonzero" filter="url(#Filter_3)" opacity="0.15" stroke="none"/>
</g>
<g id="Magnifying-Glass-copy-copy">
<path d="M726.079 75.8042C716.948 77.0504 710.225 88.8174 718.376 97.4405C793.138 176.534 759.189 348.422 638.608 481.843C517.232 616.145 356.233 658.655 279.798 581.101C270.644 571.813 262.923 561.075 256.731 548.983C249.404 534.676 227.752 544.177 233.327 559.254C242.844 584.997 256.814 607.216 275.168 625.257C372.052 720.492 555.781 675.213 686.174 527.894C816.299 380.876 846.229 185.726 749.862 91.0001C745.586 86.7954 740.941 82.7893 735.55 78.5824C732.432 76.1491 729.123 75.3888 726.079 75.8042Z" fill="#929699" fill-rule="nonzero" opacity="1" stroke="none"/>
<path d="M730.162 76.0988C733.062 78.5326 735.883 81.0626 738.581 83.7599C821.867 167.039 781.672 349.059 650.057 490.767C518.389 632.532 344.312 680.964 260.898 597.559C249.068 585.73 239.803 571.849 232.863 556.434C233.006 557.374 232.959 558.26 233.327 559.254C242.844 584.997 256.814 607.216 275.168 625.257C372.052 720.492 555.781 675.213 686.174 527.894C816.299 380.876 846.229 185.726 749.862 91.0001C745.586 86.7954 740.941 82.7893 735.55 78.5824C733.782 77.2029 731.97 76.4935 730.162 76.0988Z" fill="url(#LinearGradient_4)" fill-rule="nonzero" filter="url(#Filter_4)" opacity="0.15" stroke="none"/>
<path d="M687.902 52.4325C705.912 59.0028 722.074 68.907 735.679 82.4503C762.724 109.374 776.229 147.138 777.82 190.572C784.318 278.863 737.982 393.455 648.662 489.386C538.613 607.578 398.876 659.288 309.807 622.398C291.155 615.836 274.437 605.785 260.432 591.843C231.815 563.355 218.397 522.681 218.206 476.031C217.261 530.614 233.652 577.657 269.474 608.216C359.799 685.268 537.573 629.255 666.537 483.142C795.501 337.03 826.802 156.154 736.478 79.1012C722.266 66.9773 705.911 58.138 687.902 52.4325Z" fill="#ffffff" fill-rule="nonzero" opacity="1" stroke="none"/>
<path d="M631.578 42.8866C543.45 42.2441 435.994 97.3411 349.422 190.552C217.807 332.259 177.612 514.281 260.898 597.559C344.312 680.964 518.389 632.532 650.057 490.767C781.672 349.059 821.867 167.039 738.581 83.7599C715.475 60.6568 684.837 47.1997 648.921 43.7706C643.229 43.2271 637.453 42.9295 631.578 42.8866ZM625.306 59.6822C661.769 60.6251 692.418 72.4954 714.798 94.8727C788.602 168.671 750.694 335.241 628.842 466.437C507.052 597.567 348.26 642.988 274.579 569.314C200.781 495.523 238.714 328.959 360.577 197.751C442.509 109.535 543.995 57.5816 625.306 59.6822Z" fill="#0e72c8" fill-rule="nonzero" opacity="1" stroke="none"/>
<path d="M631.578 42.8866C543.45 42.2441 435.994 97.3411 349.422 190.552C217.807 332.259 177.612 514.281 260.898 597.559C344.312 680.964 518.389 632.532 650.057 490.767C781.672 349.059 821.867 167.039 738.581 83.7599C715.475 60.6568 684.837 47.1997 648.921 43.7706C643.229 43.2271 637.453 42.9295 631.578 42.8866ZM625.306 59.6822C661.769 60.6251 692.418 72.4954 714.798 94.8727C788.602 168.671 750.694 335.241 628.842 466.437C507.052 597.567 348.26 642.988 274.579 569.314C200.781 495.523 238.714 328.959 360.577 197.751C442.509 109.535 543.995 57.5816 625.306 59.6822Z" fill="url(#LinearGradient_5)" fill-rule="nonzero" filter="url(#Filter_5)" opacity="0.15" stroke="none"/>
<path d="M603.544 74.5315C577.435 75.5235 548.732 82.9228 519.185 95.8254C519.368 95.7651 519.199 95.8293 518.932 95.9473C516.888 96.8551 515.677 98.559 516.254 99.7382C516.81 100.875 518.799 101.071 520.773 100.274C520.818 100.256 521.005 100.203 521.025 100.193C547.125 89.3279 572.435 83.1357 595.444 82.3299C626.212 81.2538 652.968 89.5916 672.647 108.433C699.704 134.341 708.751 175.974 702.085 224.381C702.054 224.578 702.044 224.739 702.028 224.944C701.426 232.554 703.773 239.494 708.378 240.25C712.983 241.006 718.178 235.518 719.805 227.894C720.13 226.369 720.256 224.383 720.21 224.859C726.449 174.171 716.594 130.405 687.89 102.922C668.856 84.6964 643.747 75.5193 614.98 74.5053C611.234 74.374 607.408 74.3851 603.544 74.5315Z" fill="#21acf6" fill-rule="nonzero" opacity="1" stroke="none"/>
<path d="M603.544 74.5315C577.435 75.5235 548.732 82.9228 519.185 95.8254C519.368 95.7651 519.199 95.8293 518.932 95.9473C516.888 96.8551 515.677 98.559 516.254 99.7382C516.81 100.875 518.799 101.071 520.773 100.274C520.818 100.256 521.005 100.203 521.025 100.193C547.125 89.3279 572.435 83.1357 595.444 82.3299C626.212 81.2538 652.968 89.5916 672.647 108.433C699.704 134.341 708.751 175.974 702.085 224.381C702.054 224.578 702.044 224.739 702.028 224.944C701.426 232.554 703.773 239.494 708.378 240.25C712.983 241.006 718.178 235.518 719.805 227.894C720.13 226.369 720.256 224.383 720.21 224.859C726.449 174.171 716.594 130.405 687.89 102.922C668.856 84.6964 643.747 75.5193 614.98 74.5053C611.234 74.374 607.408 74.3851 603.544 74.5315Z" fill="url(#LinearGradient_6)" fill-rule="nonzero" filter="url(#Filter_6)" opacity="0.15" stroke="none"/>
</g>
</svg>
