<?xml version="1.0" encoding="UTF-8" standalone="no"?>
<!DOCTYPE svg PUBLIC "-//W3C//DTD SVG 1.1//EN" "http://www.w3.org/Graphics/SVG/1.1/DTD/svg11.dtd">
<!-- Created with Vectornator (http://vectornator.io/) -->
<svg height="100%" stroke-miterlimit="10" style="fill-rule:nonzero;clip-rule:evenodd;stroke-linecap:round;stroke-linejoin:round;" version="1.1" viewBox="0 0 1920 880" width="100%" xml:space="preserve" xmlns="http://www.w3.org/2000/svg" xmlns:vectornator="http://vectornator.io" xmlns:xlink="http://www.w3.org/1999/xlink">
<defs/>
<g id="Tech-Sol-Layer" vectornator:layerName="Tech Sol Layer">
<g fill="#000000" opacity="1" stroke="none" vectornator:layerName="Text 2">
<path d="M498.706 716.353L518.617 716.353L518.617 559.556L564.909 559.556L564.909 541.885L452.164 541.885L452.164 559.556L498.706 559.556L498.706 716.353Z"/>
<path d="M657.429 690.967C651.705 695.945 639.509 701.171 626.069 701.171C598.941 701.171 585.003 688.478 583.261 655.128L669.375 655.128C670.371 646.417 670.869 638.452 670.869 631.732C670.869 599.626 653.696 578.72 621.589 578.72C591.474 578.72 564.097 598.879 564.097 647.91C564.097 698.434 585.003 718.096 623.581 718.096C642.994 718.096 657.18 712.62 666.14 705.9L657.429 690.967ZM619.847 595.395C641.749 595.395 651.705 608.337 651.705 631.483C651.705 632.977 651.705 636.461 651.456 639.199L583.51 639.199C585.252 606.595 602.176 595.395 619.847 595.395Z"/>
<path d="M682.003 650.648C682.003 699.429 703.656 718.593 736.758 718.593C759.904 718.593 771.353 710.38 776.828 704.158L764.882 690.718C759.406 696.94 750.944 701.42 738.5 701.42C715.851 701.42 701.914 686.736 701.914 648.159C701.914 610.328 716.598 595.893 738.5 595.893C751.691 595.893 759.655 601.368 765.131 607.093L778.073 592.906C773.095 587.182 761.148 578.72 739.495 578.72C706.394 578.72 682.003 600.871 682.003 650.648Z"/>
<path d="M848.939 578.72C826.042 578.72 813.846 591.164 809.864 595.893L808.869 595.893L808.869 527.449L789.456 527.449L789.456 716.353L808.869 716.353L808.869 619.786C813.597 608.088 826.291 595.893 844.957 595.893C863.374 595.893 872.334 608.835 872.334 625.759L872.334 716.353L891.747 716.353L891.747 622.772C891.747 595.146 875.072 578.72 848.939 578.72Z"/>
<path d="M1012.82 700.922C991.917 700.922 977.979 692.46 968.273 684.496L956.575 700.425C966.53 709.385 984.699 718.842 1011.08 718.842C1048.41 718.842 1069.32 696.94 1069.32 670.558C1069.32 616.799 986.192 625.261 986.192 584.942C986.192 569.013 998.388 557.565 1018.8 557.565C1033.48 557.565 1044.18 562.542 1052.89 569.511L1065.09 554.08C1055.13 545.867 1039.7 539.396 1020.04 539.396C988.681 539.396 966.033 559.805 966.033 586.186C966.033 641.19 1049.16 632.23 1049.16 671.803C1049.16 687.98 1036.47 700.922 1012.82 700.922Z"/>
<path d="M1097.63 647.412C1097.63 612.319 1107.33 595.146 1132.97 595.146C1159.1 595.146 1170.05 612.817 1170.05 649.154C1170.05 684.496 1160.6 701.669 1134.46 701.669C1108.58 701.669 1097.63 683.749 1097.63 647.412ZM1132.97 718.593C1174.03 718.593 1189.96 689.474 1189.96 647.661C1189.96 606.346 1175.78 578.471 1134.46 578.471C1093.4 578.471 1077.72 607.093 1077.72 648.905C1077.72 690.469 1091.9 718.593 1132.97 718.593Z"/>
<path d="M1208.32 527.449L1208.32 689.474C1208.32 707.145 1217.28 718.096 1235.94 718.096C1241.17 718.096 1247.89 717.349 1252.87 715.109L1252.87 698.682C1250.38 699.927 1246.64 701.42 1241.67 701.42C1231.46 701.42 1227.48 696.194 1227.48 684.247L1227.48 527.449L1208.32 527.449Z"/>
<path d="M1260.52 673.545C1261.26 704.407 1276.69 719.091 1304.57 719.091C1327.22 719.091 1339.41 707.393 1343.15 702.167L1344.14 702.167L1347.87 716.353L1363.06 716.353L1363.06 580.96L1343.64 580.96L1343.64 669.812C1343.15 691.216 1328.96 702.416 1309.55 702.416C1289.39 702.416 1279.93 691.714 1279.93 669.563L1279.93 580.96L1260.52 580.96L1260.52 673.545Z"/>
<path d="M1425.96 717.598C1442.14 717.598 1451.1 714.362 1456.32 711.376L1450.85 695.945C1447.36 698.185 1441.14 700.674 1430.19 700.674C1418.24 700.674 1410.53 694.451 1410.53 679.269L1410.53 596.64L1447.86 596.64L1447.86 580.96L1410.53 580.96L1410.53 545.369L1397.34 545.369L1391.36 580.462L1371.2 584.195L1371.2 596.64L1391.36 596.64L1391.36 680.265C1391.36 705.9 1403.56 717.598 1425.96 717.598Z"/>
<path d="M1471.19 716.353L1490.6 716.353L1490.6 580.96L1471.19 580.96L1471.19 716.353ZM1465.71 541.387C1465.71 549.351 1471.94 555.325 1479.65 555.325C1487.87 555.325 1494.09 549.351 1494.09 541.387C1494.09 533.174 1487.87 527.201 1479.65 527.201C1471.94 527.201 1465.71 533.174 1465.71 541.387Z"/>
<path d="M1532.1 647.412C1532.1 612.319 1541.81 595.146 1567.44 595.146C1593.58 595.146 1604.53 612.817 1604.53 649.154C1604.53 684.496 1595.07 701.669 1568.94 701.669C1543.05 701.669 1532.1 683.749 1532.1 647.412ZM1567.44 718.593C1608.51 718.593 1624.44 689.474 1624.44 647.661C1624.44 606.346 1610.25 578.471 1568.94 578.471C1527.87 578.471 1512.19 607.093 1512.19 648.905C1512.19 690.469 1526.38 718.593 1567.44 718.593Z"/>
<path d="M1743.59 623.021C1742.84 592.906 1726.66 578.222 1699.54 578.222C1678.38 578.222 1664.69 590.417 1660.96 595.146L1659.96 595.146L1655.98 580.96L1641.3 580.96L1641.3 716.353L1660.71 716.353L1660.71 619.537C1665.44 606.346 1678.38 595.395 1695.06 595.395C1713.97 595.395 1724.17 606.844 1724.17 627.501L1724.17 716.353L1743.59 716.353L1743.59 623.021Z"/>
<path d="M1830.63 680.514C1830.63 691.963 1821.42 701.918 1802.51 701.918C1786.83 701.918 1773.89 695.447 1765.67 686.985L1753.73 701.42C1762.19 710.131 1779.11 718.593 1801.51 718.593C1834.12 718.593 1849.8 698.682 1849.8 680.016C1849.8 633.972 1781.35 646.168 1781.35 615.804C1781.35 604.853 1789.57 595.644 1807.98 595.644C1818.44 595.644 1829.39 600.124 1835.61 606.595L1848.05 593.155C1839.84 584.444 1824.66 578.72 1808.48 578.72C1778.86 578.72 1762.19 596.888 1762.19 616.301C1762.19 662.096 1830.63 649.901 1830.63 680.514Z"/>
</g>
</g>
<g id="InSite-Layer" vectornator:layerName="InSite Layer">
<g fill="#000000" opacity="1" stroke="none" vectornator:layerName="Text 1">
<path d="M478.057 497.437L533.12 497.437L533.12 115.268L478.057 115.268L478.057 497.437Z"/>
<path d="M866.204 290.27C865.113 223.758 829.677 191.048 770.252 191.048C728.274 191.048 697.744 213.945 686.295 228.12L684.114 228.12L673.211 197.59L631.777 197.59L631.777 497.437L685.75 497.437L685.75 286.454C695.563 259.195 721.186 237.933 754.442 237.933C792.059 237.933 812.231 261.375 812.231 302.264L812.231 497.437L866.204 497.437L866.204 290.27Z"/>
<path d="M1054.82 454.368C1008.48 454.368 977.4 432.561 957.229 415.661L925.063 460.91C944.69 478.901 986.123 502.889 1048.82 502.889C1134.96 502.889 1181.3 452.733 1181.3 395.489C1181.3 276.095 1000.84 291.905 1000.84 211.764C1000.84 181.234 1024.29 158.882 1064.08 158.882C1098.43 158.882 1121.33 173.602 1137.68 187.777L1171.48 145.798C1152.95 128.352 1116.97 109.816 1067.9 109.816C995.936 109.816 945.235 155.611 945.235 215.581C945.235 336.065 1125.14 319.709 1125.14 398.76C1125.14 429.835 1101.16 454.368 1054.82 454.368Z"/>
<path d="M1260.87 497.437L1314.85 497.437L1314.85 197.59L1260.87 197.59L1260.87 497.437ZM1250.51 113.087C1250.51 132.714 1266.32 147.979 1285.95 147.979C1306.67 147.979 1321.93 132.714 1321.93 113.087C1321.93 91.8254 1306.67 76.5604 1285.95 76.5604C1266.32 76.5604 1250.51 91.8254 1250.51 113.087Z"/>
<path d="M1499.1 500.163C1539.44 500.163 1560.16 491.985 1571.06 484.898L1556.88 442.919C1547.62 449.462 1533.44 454.368 1512.18 454.368C1487.65 454.368 1472.38 441.284 1472.38 411.844L1472.38 240.114L1552.52 240.114L1552.52 197.59L1472.38 197.59L1472.38 119.629L1436.4 119.629L1418.96 195.409L1376.43 206.313L1376.43 240.114L1418.96 240.114L1418.96 412.935C1418.96 473.995 1448.94 500.163 1499.1 500.163Z"/>
<path d="M1817.46 432.561C1804.92 444.01 1779.3 457.094 1748.77 457.094C1691.52 457.094 1663.72 429.29 1660.45 363.324L1847.99 363.324C1850.17 343.152 1850.72 325.706 1850.72 310.987C1850.72 239.023 1810.92 192.138 1738.41 192.138C1665.9 192.138 1607.02 241.204 1607.02 346.423C1607.02 455.459 1653.91 501.799 1742.23 501.799C1789.66 501.799 1820.19 489.26 1841.45 472.904L1817.46 432.561ZM1735.14 236.297C1778.75 236.297 1798.92 261.921 1798.92 308.261C1798.92 310.441 1798.92 318.619 1798.38 322.98L1661.54 322.98C1664.27 261.375 1696.98 236.297 1735.14 236.297Z"/>
</g>
<path d="M1248.72 112.638C1248.72 90.8827 1266.35 73.2461 1288.11 73.2461C1309.87 73.2461 1327.5 90.8827 1327.5 112.638C1327.5 134.394 1309.87 152.031 1288.11 152.031C1266.35 152.031 1248.72 134.394 1248.72 112.638Z" fill="#1472bb" fill-rule="nonzero" opacity="1" stroke="none" vectornator:layerName="Oval 3"/>
</g>
<g id="Magnifier-Handle-copy" vectornator:layerName="Magnifier Handle copy">
<path d="M382.931 530.343C374.706 529.595 366.133 531.37 358.531 536.096L343.663 545.329C327.499 555.367 321.003 575.648 328.326 593.209L415.373 801.936C411.063 786.805 421.053 767.267 440.616 755.105C462.336 741.601 487.739 742.244 499.091 755.949C499.28 756.172 499.542 756.327 499.723 756.558L414.984 553.328C409.374 539.875 396.638 531.589 382.931 530.343Z" fill="#929699" fill-rule="nonzero" opacity="1" stroke="none" vectornator:layerName="Curve 1"/>
<path d="M402.028 577.103C393.522 576.009 384.713 577.622 377.04 582.419L362.74 591.361C346.649 601.423 340.201 621.652 347.502 639.17L386.775 733.4C384.837 717.967 395.788 700.29 415.3 690.267C437.815 678.701 463.171 681.693 474.121 696.403L474.541 696.142L435.647 602.813C429.58 588.255 416.206 578.926 402.028 577.103Z" fill="#1472bb" fill-rule="nonzero" opacity="1" stroke="none" vectornator:layerName="Curve 2"/>
<path d="M475.112 745.25C464.271 744.802 451.898 748.037 440.567 755.082C417.905 769.171 407.99 793.126 418.413 808.583C428.836 824.039 455.682 825.163 478.344 811.074C501.006 796.985 510.922 773.03 500.499 757.573C495.287 749.845 485.953 745.698 475.112 745.25ZM470.836 750.301C480.741 749.886 489.558 752.752 494.91 759.021C505.614 771.559 498.476 792.927 478.95 806.731C459.425 820.534 434.908 821.558 424.204 809.02C413.5 796.482 420.638 775.114 440.163 761.311C449.926 754.409 460.931 750.715 470.836 750.301Z" fill="#ffffff" fill-rule="nonzero" opacity="1" stroke="none" vectornator:layerName="Curve 3"/>
<path d="M424.205 809.014C413.501 796.476 420.652 775.122 440.177 761.319C459.702 747.515 484.208 746.49 494.912 759.028C505.616 771.566 498.465 792.919 478.94 806.723C459.415 820.526 434.909 821.552 424.205 809.014Z" fill="#5c5f61" fill-rule="nonzero" opacity="1" stroke="none" vectornator:layerName="Oval 7"/>
</g>
<g id="Magnifying-Glass" vectornator:layerName="Magnifying Glass">
<path d="M471.71 104.271C535.877 172.153 507.763 315.3 408.058 425.623C307.536 536.85 172.374 572.53 106.156 505.342C97.9842 497.051 91.2514 487.559 85.9038 477.117C92.8194 495.823 103.015 512.507 116.929 526.184C189.413 597.434 329.965 562.805 430.85 448.823C531.735 334.841 554.768 184.679 482.285 113.429C478.921 110.123 475.36 107.118 471.71 104.271Z" fill="#929699" fill-rule="nonzero" opacity="1" stroke="#929699" stroke-linecap="butt" stroke-linejoin="round" stroke-width="22.0872" vectornator:layerName="Curve 8"/>
<path d="M390.217 61.1053C317.746 62.1719 228.291 109.271 157.311 191.072C54.0676 310.054 29.0038 457.383 101.314 520.128C173.625 582.873 315.942 537.268 419.185 418.286C522.429 299.303 547.493 152.008 475.182 89.263C452.585 69.6551 423.158 60.6205 390.217 61.1053ZM392.479 67.575C396.988 67.6154 401.44 67.8341 405.789 68.2585C433.013 70.9154 456.91 81.1302 475.122 99.6052C539.878 165.294 508.402 310.255 404.869 423.362C301.335 536.469 164.917 574.901 100.161 509.212C35.4053 443.524 66.8473 298.562 170.381 185.455C240.144 109.241 324.838 66.9693 392.479 67.575Z" fill="#ffffff" fill-rule="nonzero" opacity="1" stroke="none" vectornator:layerName="Curve 11"/>
<path d="M405.771 68.1899C336.254 61.4546 244.898 104.198 170.48 185.503C66.9424 298.624 35.4125 443.508 100.071 509.113C164.73 574.719 301.077 536.211 404.615 423.091C508.153 309.97 539.683 165.086 475.024 99.4808C456.839 81.0292 432.973 70.8255 405.771 68.1899ZM387.372 74.5174C416.441 75.2796 441.87 84.7791 460.669 103.854C520.827 164.892 490.295 301.027 392.457 407.92C294.619 514.813 166.526 551.974 106.368 490.935C46.2104 429.896 76.7754 293.764 174.613 186.871C241.877 113.382 323.418 72.8405 387.372 74.5174Z" fill="#1472bb" fill-rule="nonzero" opacity="1" stroke="#1472bb" stroke-linecap="butt" stroke-linejoin="round" stroke-width="6.46455" vectornator:layerName="Curve 2"/>
<path d="M372.212 91.7323C351.32 92.2516 328.286 97.8677 304.519 107.877C304.665 107.831 304.529 107.881 304.316 107.972C302.671 108.676 301.684 110.027 302.133 110.976C302.566 111.891 304.154 112.068 305.741 111.452C305.778 111.438 305.928 111.397 305.944 111.39C326.933 102.974 347.24 98.2871 365.652 97.8847C390.271 97.3467 411.584 104.296 427.124 119.572C448.493 140.577 455.291 173.969 449.451 212.616C449.425 212.773 449.416 212.901 449.401 213.065C448.839 219.145 450.643 224.721 454.318 225.374C457.993 226.027 462.207 221.692 463.588 215.611C463.864 214.395 463.985 212.808 463.944 213.188C469.465 172.714 462.042 137.607 439.374 115.325C424.341 100.548 404.356 92.9443 381.359 91.8315C378.364 91.6866 375.304 91.6554 372.212 91.7323Z" fill="#21acf6" fill-rule="nonzero" opacity="1" stroke="none" vectornator:layerName="Curve 9"/>
</g>
</svg>
