<?xml version="1.0" encoding="UTF-8" standalone="no"?>
<!DOCTYPE svg PUBLIC "-//W3C//DTD SVG 1.1//EN" "http://www.w3.org/Graphics/SVG/1.1/DTD/svg11.dtd">
<!-- Created with Vectornator (http://vectornator.io/) -->
<svg height="100%" stroke-miterlimit="10" style="fill-rule:nonzero;clip-rule:evenodd;stroke-linecap:round;stroke-linejoin:round;" version="1.1" viewBox="0 0 1920 880" width="100%" xml:space="preserve" xmlns="http://www.w3.org/2000/svg" xmlns:xlink="http://www.w3.org/1999/xlink">
<defs>
<linearGradient gradientTransform="matrix(89.1534 -204.972 204.972 89.1534 341.33 785.179)" gradientUnits="userSpaceOnUse" id="LinearGradient" x1="0" x2="1" y1="0" y2="0">
<stop offset="0" stop-color="#000000"/>
<stop offset="1" stop-color="#000000" stop-opacity="0"/>
</linearGradient>
<filter color-interpolation-filters="sRGB" filterUnits="userSpaceOnUse" height="276.659" id="Filter" width="179.774" x="322.044" y="524.338">
<feGaussianBlur in="SourceGraphic" result="Blur" stdDeviation="1.25"/>
</filter>
<linearGradient gradientTransform="matrix(80.3767 -147.54 147.54 80.3767 351.267 736.751)" gradientUnits="userSpaceOnUse" id="LinearGradient_2" x1="0" x2="1" y1="0" y2="0">
<stop offset="0" stop-color="#000000"/>
<stop offset="1" stop-color="#000000" stop-opacity="0"/>
</linearGradient>
<filter color-interpolation-filters="sRGB" filterUnits="userSpaceOnUse" height="162.097" id="Filter_2" width="135.632" x="341.128" y="570.704">
<feGaussianBlur in="SourceGraphic" result="Blur" stdDeviation="1.25"/>
</filter>
<linearGradient gradientTransform="matrix(67.5063 -97.6268 98.1655 67.5157 414.177 843.968)" gradientUnits="userSpaceOnUse" id="LinearGradient_3" x1="0" x2="1" y1="0" y2="0">
<stop offset="0" stop-color="#000000"/>
<stop offset="1" stop-color="#000000" stop-opacity="0"/>
</linearGradient>
<filter color-interpolation-filters="sRGB" filterUnits="userSpaceOnUse" height="76.3337" id="Filter_3" width="90.6653" x="413.917" y="742.724">
<feGaussianBlur in="SourceGraphic" result="Blur" stdDeviation="1.25"/>
</filter>
<linearGradient gradientTransform="matrix(306.989 -548.386 548.386 306.989 158.516 627.274)" gradientUnits="userSpaceOnUse" id="LinearGradient_4" x1="0" x2="1" y1="0" y2="0">
<stop offset="0" stop-color="#000000"/>
<stop offset="1" stop-color="#000000" stop-opacity="0"/>
</linearGradient>
<filter color-interpolation-filters="sRGB" filterUnits="userSpaceOnUse" height="486.734" id="Filter_4" width="466.292" x="70.729" y="87.8124">
<feGaussianBlur in="SourceGraphic" result="Blur" stdDeviation="1.25"/>
</filter>
<linearGradient gradientTransform="matrix(310.871 -541.935 558.029 310.871 150.493 621.046)" gradientUnits="userSpaceOnUse" id="LinearGradient_5" x1="0" x2="1" y1="0" y2="0">
<stop offset="0" stop-color="#000000"/>
<stop offset="1" stop-color="#000000" stop-opacity="0"/>
</linearGradient>
<filter color-interpolation-filters="sRGB" filterUnits="userSpaceOnUse" height="483.834" id="Filter_5" width="458.99" x="58.3674" y="61.175">
<feGaussianBlur in="SourceGraphic" result="Blur" stdDeviation="1.25"/>
</filter>
<linearGradient gradientTransform="matrix(154.081 -246.673 246.673 154.081 272.685 326.366)" gradientUnits="userSpaceOnUse" id="LinearGradient_6" x1="0" x2="1" y1="0" y2="0">
<stop offset="0" stop-color="#000000"/>
<stop offset="1" stop-color="#000000" stop-opacity="0"/>
</linearGradient>
<filter color-interpolation-filters="sRGB" filterUnits="userSpaceOnUse" height="139.29" id="Filter_6" width="171.357" x="297.865" y="86.4612">
<feGaussianBlur in="SourceGraphic" result="Blur" stdDeviation="1.25"/>
</filter>
</defs>
<g id="Tech-Sol-Layer">
<g fill="#000000" opacity="1" stroke="none">
<path d="M498.706 716.353L518.617 716.353L518.617 559.556L564.909 559.556L564.909 541.885L452.164 541.885L452.164 559.556L498.706 559.556L498.706 716.353Z"/>
<path d="M657.429 690.967C651.705 695.945 639.509 701.171 626.069 701.171C598.941 701.171 585.003 688.478 583.261 655.128L669.375 655.128C670.371 646.417 670.869 638.452 670.869 631.732C670.869 599.626 653.696 578.72 621.589 578.72C591.474 578.72 564.097 598.879 564.097 647.91C564.097 698.434 585.003 718.096 623.581 718.096C642.994 718.096 657.18 712.62 666.14 705.9L657.429 690.967ZM619.847 595.395C641.749 595.395 651.705 608.337 651.705 631.483C651.705 632.977 651.705 636.461 651.456 639.199L583.51 639.199C585.252 606.595 602.176 595.395 619.847 595.395Z"/>
<path d="M682.003 650.648C682.003 699.429 703.656 718.593 736.758 718.593C759.904 718.593 771.353 710.38 776.828 704.158L764.882 690.718C759.406 696.94 750.944 701.42 738.5 701.42C715.851 701.42 701.914 686.736 701.914 648.159C701.914 610.328 716.598 595.893 738.5 595.893C751.691 595.893 759.655 601.368 765.131 607.093L778.073 592.906C773.095 587.182 761.148 578.72 739.495 578.72C706.394 578.72 682.003 600.871 682.003 650.648Z"/>
<path d="M848.939 578.72C826.042 578.72 813.846 591.164 809.864 595.893L808.869 595.893L808.869 527.449L789.456 527.449L789.456 716.353L808.869 716.353L808.869 619.786C813.597 608.088 826.291 595.893 844.957 595.893C863.374 595.893 872.334 608.835 872.334 625.759L872.334 716.353L891.747 716.353L891.747 622.772C891.747 595.146 875.072 578.72 848.939 578.72Z"/>
<path d="M1012.82 700.922C991.917 700.922 977.979 692.46 968.273 684.496L956.575 700.425C966.53 709.385 984.699 718.842 1011.08 718.842C1048.41 718.842 1069.32 696.94 1069.32 670.558C1069.32 616.799 986.192 625.261 986.192 584.942C986.192 569.013 998.388 557.565 1018.8 557.565C1033.48 557.565 1044.18 562.542 1052.89 569.511L1065.09 554.08C1055.13 545.867 1039.7 539.396 1020.04 539.396C988.681 539.396 966.033 559.805 966.033 586.186C966.033 641.19 1049.16 632.23 1049.16 671.803C1049.16 687.98 1036.47 700.922 1012.82 700.922Z"/>
<path d="M1097.63 647.412C1097.63 612.319 1107.33 595.146 1132.97 595.146C1159.1 595.146 1170.05 612.817 1170.05 649.154C1170.05 684.496 1160.6 701.669 1134.46 701.669C1108.58 701.669 1097.63 683.749 1097.63 647.412ZM1132.97 718.593C1174.03 718.593 1189.96 689.474 1189.96 647.661C1189.96 606.346 1175.78 578.471 1134.46 578.471C1093.4 578.471 1077.72 607.093 1077.72 648.905C1077.72 690.469 1091.9 718.593 1132.97 718.593Z"/>
<path d="M1208.32 527.449L1208.32 689.474C1208.32 707.145 1217.28 718.096 1235.94 718.096C1241.17 718.096 1247.89 717.349 1252.87 715.109L1252.87 698.682C1250.38 699.927 1246.64 701.42 1241.67 701.42C1231.46 701.42 1227.48 696.194 1227.48 684.247L1227.48 527.449L1208.32 527.449Z"/>
<path d="M1260.52 673.545C1261.26 704.407 1276.69 719.091 1304.57 719.091C1327.22 719.091 1339.41 707.393 1343.15 702.167L1344.14 702.167L1347.87 716.353L1363.06 716.353L1363.06 580.96L1343.64 580.96L1343.64 669.812C1343.15 691.216 1328.96 702.416 1309.55 702.416C1289.39 702.416 1279.93 691.714 1279.93 669.563L1279.93 580.96L1260.52 580.96L1260.52 673.545Z"/>
<path d="M1425.96 717.598C1442.14 717.598 1451.1 714.362 1456.32 711.376L1450.85 695.945C1447.36 698.185 1441.14 700.674 1430.19 700.674C1418.24 700.674 1410.53 694.451 1410.53 679.269L1410.53 596.64L1447.86 596.64L1447.86 580.96L1410.53 580.96L1410.53 545.369L1397.34 545.369L1391.36 580.462L1371.2 584.195L1371.2 596.64L1391.36 596.64L1391.36 680.265C1391.36 705.9 1403.56 717.598 1425.96 717.598Z"/>
<path d="M1471.19 716.353L1490.6 716.353L1490.6 580.96L1471.19 580.96L1471.19 716.353ZM1465.71 541.387C1465.71 549.351 1471.94 555.325 1479.65 555.325C1487.87 555.325 1494.09 549.351 1494.09 541.387C1494.09 533.174 1487.87 527.201 1479.65 527.201C1471.94 527.201 1465.71 533.174 1465.71 541.387Z"/>
<path d="M1532.1 647.412C1532.1 612.319 1541.81 595.146 1567.44 595.146C1593.58 595.146 1604.53 612.817 1604.53 649.154C1604.53 684.496 1595.07 701.669 1568.94 701.669C1543.05 701.669 1532.1 683.749 1532.1 647.412ZM1567.44 718.593C1608.51 718.593 1624.44 689.474 1624.44 647.661C1624.44 606.346 1610.25 578.471 1568.94 578.471C1527.87 578.471 1512.19 607.093 1512.19 648.905C1512.19 690.469 1526.38 718.593 1567.44 718.593Z"/>
<path d="M1743.59 623.021C1742.84 592.906 1726.66 578.222 1699.54 578.222C1678.38 578.222 1664.69 590.417 1660.96 595.146L1659.96 595.146L1655.98 580.96L1641.3 580.96L1641.3 716.353L1660.71 716.353L1660.71 619.537C1665.44 606.346 1678.38 595.395 1695.06 595.395C1713.97 595.395 1724.17 606.844 1724.17 627.501L1724.17 716.353L1743.59 716.353L1743.59 623.021Z"/>
<path d="M1830.63 680.514C1830.63 691.963 1821.42 701.918 1802.51 701.918C1786.83 701.918 1773.89 695.447 1765.67 686.985L1753.73 701.42C1762.19 710.131 1779.11 718.593 1801.51 718.593C1834.12 718.593 1849.8 698.682 1849.8 680.016C1849.8 633.972 1781.35 646.168 1781.35 615.804C1781.35 604.853 1789.57 595.644 1807.98 595.644C1818.44 595.644 1829.39 600.124 1835.61 606.595L1848.05 593.155C1839.84 584.444 1824.66 578.72 1808.48 578.72C1778.86 578.72 1762.19 596.888 1762.19 616.301C1762.19 662.096 1830.63 649.901 1830.63 680.514Z"/>
</g>
</g>
<g id="InSite-Layer">
<g fill="#000000" opacity="1" stroke="none">
<path d="M478.057 497.437L533.12 497.437L533.12 115.268L478.057 115.268L478.057 497.437Z"/>
<path d="M866.204 290.27C865.113 223.758 829.677 191.048 770.252 191.048C728.274 191.048 697.744 213.945 686.295 228.12L684.114 228.12L673.211 197.59L631.777 197.59L631.777 497.437L685.75 497.437L685.75 286.454C695.563 259.195 721.186 237.933 754.442 237.933C792.059 237.933 812.231 261.375 812.231 302.264L812.231 497.437L866.204 497.437L866.204 290.27Z"/>
<path d="M1054.82 454.368C1008.48 454.368 977.4 432.561 957.229 415.661L925.063 460.91C944.69 478.901 986.123 502.889 1048.82 502.889C1134.96 502.889 1181.3 452.733 1181.3 395.489C1181.3 276.095 1000.84 291.905 1000.84 211.764C1000.84 181.234 1024.29 158.882 1064.08 158.882C1098.43 158.882 1121.33 173.602 1137.68 187.777L1171.48 145.798C1152.95 128.352 1116.97 109.816 1067.9 109.816C995.936 109.816 945.235 155.611 945.235 215.581C945.235 336.065 1125.14 319.709 1125.14 398.76C1125.14 429.835 1101.16 454.368 1054.82 454.368Z"/>
<path d="M1260.87 497.437L1314.85 497.437L1314.85 197.59L1260.87 197.59L1260.87 497.437ZM1250.51 113.087C1250.51 132.714 1266.32 147.979 1285.95 147.979C1306.67 147.979 1321.93 132.714 1321.93 113.087C1321.93 91.8254 1306.67 76.5604 1285.95 76.5604C1266.32 76.5604 1250.51 91.8254 1250.51 113.087Z"/>
<path d="M1499.1 500.163C1539.44 500.163 1560.16 491.985 1571.06 484.898L1556.88 442.919C1547.62 449.462 1533.44 454.368 1512.18 454.368C1487.65 454.368 1472.38 441.284 1472.38 411.844L1472.38 240.114L1552.52 240.114L1552.52 197.59L1472.38 197.59L1472.38 119.629L1436.4 119.629L1418.96 195.409L1376.43 206.313L1376.43 240.114L1418.96 240.114L1418.96 412.935C1418.96 473.995 1448.94 500.163 1499.1 500.163Z"/>
<path d="M1817.46 432.561C1804.92 444.01 1779.3 457.094 1748.77 457.094C1691.52 457.094 1663.72 429.29 1660.45 363.324L1847.99 363.324C1850.17 343.152 1850.72 325.706 1850.72 310.987C1850.72 239.023 1810.92 192.138 1738.41 192.138C1665.9 192.138 1607.02 241.204 1607.02 346.423C1607.02 455.459 1653.91 501.799 1742.23 501.799C1789.66 501.799 1820.19 489.26 1841.45 472.904L1817.46 432.561ZM1735.14 236.297C1778.75 236.297 1798.92 261.921 1798.92 308.261C1798.92 310.441 1798.92 318.619 1798.38 322.98L1661.54 322.98C1664.27 261.375 1696.98 236.297 1735.14 236.297Z"/>
</g>
<path d="M1248.72 112.638C1248.72 90.8827 1266.35 73.2461 1288.11 73.2461C1309.87 73.2461 1327.5 90.8827 1327.5 112.638C1327.5 134.394 1309.87 152.031 1288.11 152.031C1266.35 152.031 1248.72 134.394 1248.72 112.638Z" fill="#0e72c8" fill-rule="nonzero" opacity="1" stroke="none"/>
</g>
<g id="Handle">
<path d="M382.48 527.627C374.297 526.883 365.766 528.65 358.202 533.352L343.408 542.539C327.324 552.527 320.86 572.708 328.148 590.181L414.762 797.872C410.473 782.816 420.414 763.375 439.879 751.273C461.491 737.837 486.768 738.476 498.064 752.113C498.251 752.336 498.512 752.489 498.693 752.718L414.375 550.498C408.792 537.113 396.12 528.867 382.48 527.627Z" fill="#929699" fill-rule="nonzero" opacity="1" stroke="none"/>
<path d="M382.48 527.627C374.297 526.883 365.766 528.65 358.202 533.352L343.408 542.539C327.324 552.527 320.86 572.708 328.148 590.181L414.762 797.872C410.473 782.816 420.414 763.375 439.879 751.273C461.491 737.837 486.768 738.476 498.064 752.113C498.251 752.336 498.512 752.489 498.693 752.718L414.375 550.498C408.792 537.113 396.12 528.867 382.48 527.627Z" fill="url(#LinearGradient)" fill-rule="nonzero" filter="url(#Filter)" opacity="0.15" stroke="none"/>
<path d="M401.483 574.155C393.019 573.067 384.255 574.672 376.619 579.446L362.39 588.343C346.378 598.355 339.963 618.483 347.228 635.914L386.305 729.676C384.378 714.319 395.273 696.73 414.689 686.757C437.092 675.249 462.322 678.226 473.219 692.863L473.636 692.604L434.935 599.738C428.898 585.252 415.59 575.969 401.483 574.155Z" fill="#0e72c8" fill-rule="nonzero" opacity="1" stroke="none"/>
<path d="M401.483 574.155C393.019 573.067 384.255 574.672 376.619 579.446L362.39 588.343C346.378 598.355 339.963 618.483 347.228 635.914L386.305 729.676C384.378 714.319 395.273 696.73 414.689 686.757C437.092 675.249 462.322 678.226 473.219 692.863L473.636 692.604L434.935 599.738C428.898 585.252 415.59 575.969 401.483 574.155Z" fill="url(#LinearGradient_2)" fill-rule="nonzero" filter="url(#Filter_2)" opacity="0.15" stroke="none"/>
<path d="M474.145 741.576C463.361 741.132 451.054 744.341 439.784 751.329C417.242 765.307 407.38 789.073 417.747 804.407C428.115 819.74 454.819 820.856 477.36 806.878C499.902 792.9 509.764 769.136 499.397 753.802C494.213 746.134 484.928 742.02 474.145 741.576ZM469.891 746.587C479.744 746.175 488.514 749.018 493.837 755.238C504.484 767.677 497.384 788.875 477.963 802.569C458.542 816.263 434.155 817.279 423.508 804.841C412.86 792.402 419.961 771.203 439.382 757.51C449.093 750.662 460.039 746.998 469.891 746.587Z" fill="#ffffff" fill-rule="nonzero" opacity="1" stroke="none"/>
<path d="M422.107 806.596C411.044 793.443 418.705 771.271 439.218 757.075C459.73 742.879 485.327 742.033 496.391 755.187C507.455 768.34 499.794 790.51 479.282 804.706C458.769 818.903 433.171 819.749 422.107 806.596Z" fill="#5c5f61" fill-rule="nonzero" opacity="1" stroke="none"/>
<path d="M422.107 806.596C411.044 793.443 418.705 771.271 439.218 757.075C459.73 742.879 485.327 742.033 496.391 755.187C507.455 768.34 499.794 790.51 479.282 804.706C458.769 818.903 433.171 819.749 422.107 806.596Z" fill="url(#LinearGradient_3)" fill-rule="nonzero" filter="url(#Filter_3)" opacity="0.15" stroke="none"/>
</g>
<g id="Magnifying-Glass-copy-copy">
<path d="M469.365 90.7011C462.043 91.7005 456.651 101.136 463.187 108.051C523.14 171.477 495.916 309.314 399.221 416.305C301.89 524.002 172.784 558.091 111.491 495.9C104.15 488.452 97.9589 479.841 92.9932 470.144C87.1175 458.671 69.7553 466.29 74.2253 478.381C81.8574 499.024 93.0596 516.841 107.778 531.309C185.469 607.678 332.802 571.368 437.365 453.233C541.712 335.339 565.713 178.848 488.436 102.887C485.007 99.515 481.283 96.3025 476.96 92.929C474.459 90.9778 471.805 90.368 469.365 90.7011Z" fill="#929699" fill-rule="nonzero" opacity="1" stroke="none"/>
<path d="M472.639 90.9374C474.964 92.8891 477.227 94.9179 479.39 97.0809C546.178 163.863 513.945 309.825 408.403 423.461C302.817 537.143 163.225 575.98 96.335 509.098C86.8481 499.612 79.4187 488.481 73.854 476.119C73.9684 476.873 73.9306 477.583 74.2253 478.381C81.8574 499.024 93.0596 516.841 107.778 531.309C185.469 607.678 332.802 571.368 437.365 453.233C541.712 335.339 565.713 178.848 488.436 102.887C485.007 99.515 481.283 96.3025 476.96 92.929C475.542 91.8227 474.088 91.2539 472.639 90.9374Z" fill="url(#LinearGradient_4)" fill-rule="nonzero" filter="url(#Filter_4)" opacity="0.15" stroke="none"/>
<path d="M438.75 71.9593C453.192 77.2281 466.153 85.1703 477.063 96.0307C498.75 117.621 509.58 147.904 510.856 182.734C516.067 253.535 478.91 345.426 407.284 422.353C319.035 517.132 206.98 558.598 135.555 529.016C120.598 523.754 107.192 515.694 95.9609 504.514C73.013 481.67 62.253 449.053 62.1002 411.644C61.3425 455.414 74.486 493.138 103.212 517.644C175.644 579.432 318.202 534.514 421.617 417.346C525.034 300.179 550.135 155.134 477.703 93.345C466.307 83.6229 453.192 76.5346 438.75 71.9593Z" fill="#ffffff" fill-rule="nonzero" opacity="1" stroke="none"/>
<path d="M393.584 64.3045C322.914 63.7893 236.745 107.972 167.322 182.718C61.78 296.352 29.5475 442.316 96.335 509.098C163.225 575.98 302.817 537.143 408.403 423.461C513.945 309.825 546.178 163.862 479.39 97.0809C460.862 78.5545 436.293 67.7632 407.491 65.0134C402.927 64.5775 398.295 64.3389 393.584 64.3045ZM388.555 77.7729C417.795 78.529 442.372 88.0478 460.318 105.992C519.502 165.171 489.103 298.744 391.39 403.95C293.726 509.104 166.391 545.527 107.305 486.448C48.127 427.275 78.5454 293.707 176.268 188.49C241.969 117.75 323.351 76.0884 388.555 77.7729Z" fill="#0e72c8" fill-rule="nonzero" opacity="1" stroke="none"/>
<path d="M393.584 64.3045C322.914 63.7893 236.745 107.972 167.322 182.718C61.78 296.352 29.5475 442.316 96.335 509.098C163.225 575.98 302.817 537.143 408.403 423.461C513.945 309.825 546.178 163.862 479.39 97.0809C460.862 78.5545 436.293 67.7632 407.491 65.0134C402.927 64.5775 398.295 64.3389 393.584 64.3045ZM388.555 77.7729C417.795 78.529 442.372 88.0478 460.318 105.992C519.502 165.171 489.103 298.744 391.39 403.95C293.726 509.104 166.391 545.527 107.305 486.448C48.127 427.275 78.5454 293.707 176.268 188.49C241.969 117.75 323.351 76.0884 388.555 77.7729Z" fill="url(#LinearGradient_5)" fill-rule="nonzero" filter="url(#Filter_5)" opacity="0.15" stroke="none"/>
<path d="M371.104 89.6806C350.167 90.4761 327.15 96.4096 303.456 106.756C303.602 106.708 303.467 106.759 303.253 106.854C301.614 107.582 300.643 108.948 301.105 109.894C301.552 110.805 303.146 110.963 304.729 110.324C304.765 110.309 304.915 110.266 304.931 110.259C325.861 101.546 346.157 96.5803 364.608 95.9341C389.281 95.0712 410.737 101.757 426.517 116.866C448.215 137.642 455.469 171.027 450.124 209.846C450.099 210.004 450.091 210.132 450.078 210.297C449.595 216.399 451.478 221.965 455.17 222.571C458.863 223.177 463.029 218.776 464.334 212.662C464.594 211.439 464.695 209.847 464.658 210.228C469.661 169.582 461.759 134.486 438.741 112.447C423.477 97.8318 403.343 90.4727 380.274 89.6596C377.27 89.5543 374.202 89.5632 371.104 89.6806Z" fill="#21acf6" fill-rule="nonzero" opacity="1" stroke="none"/>
<path d="M371.104 89.6806C350.167 90.4761 327.15 96.4096 303.456 106.756C303.602 106.708 303.467 106.759 303.253 106.854C301.614 107.582 300.643 108.948 301.105 109.894C301.552 110.805 303.146 110.963 304.729 110.324C304.765 110.309 304.915 110.266 304.931 110.259C325.861 101.546 346.157 96.5803 364.608 95.9341C389.281 95.0712 410.737 101.757 426.517 116.866C448.215 137.642 455.469 171.027 450.124 209.846C450.099 210.004 450.091 210.132 450.078 210.297C449.595 216.399 451.478 221.965 455.17 222.571C458.863 223.177 463.029 218.776 464.334 212.662C464.594 211.439 464.695 209.847 464.658 210.228C469.661 169.582 461.759 134.486 438.741 112.447C423.477 97.8318 403.343 90.4727 380.274 89.6596C377.27 89.5543 374.202 89.5632 371.104 89.6806Z" fill="url(#LinearGradient_6)" fill-rule="nonzero" filter="url(#Filter_6)" opacity="0.15" stroke="none"/>
</g>
</svg>
