<?xml version="1.0" encoding="UTF-8" standalone="no"?>
<!DOCTYPE svg PUBLIC "-//W3C//DTD SVG 1.1//EN" "http://www.w3.org/Graphics/SVG/1.1/DTD/svg11.dtd">
<!-- Created with Vectornator (http://vectornator.io/) -->
<svg height="100%" stroke-miterlimit="10" style="fill-rule:nonzero;clip-rule:evenodd;stroke-linecap:round;stroke-linejoin:round;" version="1.1" viewBox="0 0 512 1024" width="100%" xml:space="preserve" xmlns="http://www.w3.org/2000/svg" xmlns:xlink="http://www.w3.org/1999/xlink">
<defs/>
<clipPath id="ArtboardFrame">
<rect height="1024" width="512" x="0" y="0"/>
</clipPath>
<g clip-path="url(#ArtboardFrame)" id="Magnifier-Right">
<g opacity="1">
<path d="M242.26 77.3827C323.901 163.752 288.119 345.891 161.26 486.258C112.96 539.702 58.3775 579.416 4.604 603.57L4.604 645.195C68.5039 623.187 134.195 579.132 190.26 515.789C318.619 370.767 347.921 179.693 255.698 89.039C251.419 84.8319 246.903 81.0058 242.26 77.3827Z" fill="#929699" fill-rule="nonzero" opacity="1" stroke="#929699" stroke-linecap="butt" stroke-linejoin="round" stroke-width="19"/>
<path d="M201.76 40.5077C220.089 47.1944 236.54 57.256 250.385 71.039C277.909 98.4389 291.672 136.899 293.291 181.101C299.905 270.955 252.723 387.566 161.823 485.195C107.626 543.403 46.4032 585.601-12.6773 609.57L-12.6773 619.039C53.2445 593.055 121.576 545.091 180.041 478.851C311.289 330.153 343.121 146.05 251.198 67.6327C236.734 55.2943 220.088 46.3142 201.76 40.5077Z" fill="#ffffff" fill-rule="nonzero" opacity="1" stroke="none"/>
<path d="M144.698 34.914C96.6392 34.5239 41.8515 50.9454-12.6773 81.9765L-12.6773 87.8515C39.8848 57.9767 92.5305 42.5788 138.166 43.7577C175.404 44.7207 207.961 56.7115 232.041 80.789C309.101 157.842 269.992 329.698 144.666 464.633C95.6408 517.418 40.6804 556.658-12.6773 580.351L-12.6773 608.445C45.9252 583.983 106.522 541.615 160.229 483.789C292.856 340.992 333.272 158.106 250.448 75.289C227.153 51.9963 196.573 39.1157 161.729 35.789C156.164 35.2575 150.47 34.9608 144.698 34.914Z" fill="#1472bb" fill-rule="nonzero" opacity="1" stroke="#1472bb" stroke-linecap="butt" stroke-linejoin="round" stroke-width="6"/>
</g>
<path d="M115.657 61.4366C89.0747 62.0973 59.7675 69.2435 29.5282 81.9786C29.7146 81.9196 29.5419 81.9827 29.2691 82.0992C27.1772 82.9958 25.9215 84.7134 26.4931 85.9211C27.0442 87.085 29.0648 87.3112 31.0841 86.527C31.1307 86.5092 31.3212 86.4571 31.3418 86.4475C58.0471 75.7399 83.8847 69.7768 107.31 69.2641C138.633 68.58 165.75 77.4219 185.523 96.8577C212.711 123.584 221.361 166.07 213.931 215.241C213.896 215.441 213.884 215.604 213.865 215.812C213.151 223.548 215.447 230.642 220.123 231.473C224.799 232.303 230.159 226.789 231.916 219.052C232.267 217.504 232.422 215.485 232.368 215.969C239.394 164.472 229.95 119.804 201.108 91.4538C181.982 72.6528 156.554 62.9788 127.294 61.5627C123.484 61.379 119.591 61.3392 115.657 61.4366Z" fill="#21acf6" fill-rule="nonzero" opacity="1" stroke="none"/>
<path d="M129.294 619.493C118.83 618.541 107.921 620.801 98.2497 626.813L79.3321 638.561C58.7668 651.332 50.5006 677.137 59.8196 699.48L170.571 965.05C165.088 945.798 177.798 920.939 202.688 905.465C230.323 888.284 262.645 889.101 277.088 906.538C277.328 906.823 277.661 907.019 277.893 907.313L170.076 648.738C162.938 631.622 146.735 621.079 129.294 619.493Z" fill="#929699" fill-rule="nonzero" opacity="1" stroke="none"/>
<path d="M153.592 678.987C142.769 677.596 131.562 679.648 121.799 685.752L103.604 697.129C83.1307 709.931 74.9276 735.669 84.2178 757.957L134.185 877.849C131.72 858.212 145.652 835.722 170.478 822.969C199.124 808.255 231.386 812.061 245.319 830.777L245.852 830.446L196.366 711.7C188.647 693.177 171.631 681.307 153.592 678.987Z" fill="#1472bb" fill-rule="nonzero" opacity="1" stroke="none"/>
<path d="M246.503 893.065C232.715 892.498 216.978 896.601 202.567 905.536C173.743 923.41 161.132 953.798 174.389 973.406C187.645 993.012 221.792 994.439 250.614 976.565C279.438 958.692 292.049 928.305 278.793 908.698C272.164 898.894 260.292 893.633 246.503 893.065ZM241.064 899.472C253.663 898.946 264.877 902.582 271.683 910.535C285.298 926.44 276.219 953.545 251.386 971.056C226.552 988.566 195.369 989.865 181.754 973.96C168.14 958.055 177.22 930.949 202.053 913.439C214.47 904.684 228.467 899.998 241.064 899.472Z" fill="#ffffff" fill-rule="nonzero" opacity="1" stroke="none"/>
<path d="M179.964 976.205C165.817 959.386 175.614 931.035 201.843 912.883C228.072 894.731 260.802 893.65 274.949 910.469C289.096 927.287 279.301 955.637 253.072 973.789C226.843 991.942 194.111 993.023 179.964 976.205Z" fill="#5c5f61" fill-rule="nonzero" opacity="1" stroke="none"/>
</g>
</svg>
