<?xml version="1.0" encoding="UTF-8" standalone="no"?>
<!DOCTYPE svg PUBLIC "-//W3C//DTD SVG 1.1//EN" "http://www.w3.org/Graphics/SVG/1.1/DTD/svg11.dtd">
<!-- Created with Vectornator (http://vectornator.io/) -->
<svg height="100%" stroke-miterlimit="10" style="fill-rule:nonzero;clip-rule:evenodd;stroke-linecap:round;stroke-linejoin:round;" version="1.1" viewBox="0 0 111.269 42.9654" width="100%" xml:space="preserve" xmlns="http://www.w3.org/2000/svg" xmlns:xlink="http://www.w3.org/1999/xlink">
<defs/>
<clipPath id="ArtboardFrame">
<rect height="42.9654" width="111.269" x="0" y="0"/>
</clipPath>
<g clip-path="url(#ArtboardFrame)" id="Untitled">
<path d="M42.6364 24.1641L44.795 24.1641L50.4593 10.7243L49.3811 8.16334L42.6364 24.1641ZM51.5352 13.2784L46.949 24.1641L56.1191 24.1641L51.5352 13.2784ZM41.73 26.3159L35.3649 41.3855L33.2108 41.3855L49.3766 3.04147L58.271 24.1641L60.425 24.1641L50.4548 0.48505L52.6066 0.48505L63.4833 26.3159L41.73 26.3159ZM54.7584 0.48505L71.3424 39.8711L72.7099 38.0108L56.9125 0.48505L54.7584 0.48505ZM46.1489 0.48505L30.3267 38.0108L31.6964 39.8711L48.3007 0.48505L46.1489 0.48505ZM42.9799 28.47L37.5371 41.3855L39.6912 41.3855L42.4126 34.9277L60.6511 34.9277L63.3702 41.3855L65.5221 41.3855L61.8965 32.7759L43.319 32.7759L44.2254 30.6218L63.1442 30.6218L67.6761 41.3855L69.828 41.3855L64.3896 28.47L42.9799 28.47ZM4.30592 41.3855L6.45774 41.3855L6.45774 30.6218L8.61182 30.6218L8.61182 39.5795L10.7636 37.4254L10.7636 30.6218L27.2594 30.6218L27.2594 28.47L4.30592 28.47L4.30592 41.3855ZM30.5007 19.8582L10.7636 19.8582L10.7636 11.2487L28.3466 11.2487L30.5007 9.09459L10.7636 9.09459L10.7636 6.94277L32.2909 6.94277L32.2909 4.78869L8.61182 4.78869L8.61182 22.0123L28.376 22.0123L30.5007 19.8582ZM6.45774 2.63687L32.2909 2.63687L32.2909 0.48505L4.30592 0.48505L4.30592 26.3159L27.2594 26.3159L27.2594 24.1641L6.45774 24.1641L6.45774 2.63687ZM5.54891e-06 4.44512L2.1541 2.29104L2.1541 41.3855L5.54891e-06 41.3855L5.54891e-06 4.44512ZM91.5247 38.6957C98.0616 38.6957 102.652 33.8541 102.657 27.3218L102.657 2.29104L100.505 4.44512L100.505 25.24C100.505 29.4013 97.1303 32.238 92.9691 32.238C88.4598 32.238 85.4355 29.989 85.4355 25.24L85.4355 0.48505L83.2836 0.48505L83.2836 25.24C83.2836 31.2073 87.2211 34.3898 92.9691 34.3898C95.1571 34.3898 97.8129 33.3094 99.6167 31.4062L99.6664 31.4695C97.9734 34.6068 95.5571 36.5416 91.5247 36.5416C85.7315 36.5416 81.1295 32.3985 81.1295 26.2821L81.1295 0.48507L78.9777 0.48507L78.9777 26.2979C78.9777 33.6168 84.5833 38.6957 91.5247 38.6957M109.114 0.48507L109.114 25.2401C109.114 31.0016 106.545 35.9517 100.548 39.7468L100.5 39.6835C104.44 36.5574 106.963 32.5431 106.963 27.3579L106.963 0.48505L104.811 0.48505L104.811 27.3218C104.811 35.0498 98.5452 40.8475 90.8172 40.8475C83.0892 40.8475 76.8258 35.0498 76.8258 27.3218L76.8258 2.29104L74.6718 4.44512L74.6718 27.3579C74.6718 36.2749 81.9003 42.9654 90.8172 42.9654L92.969 42.9654C101.75 42.9654 111.269 36.4806 111.269 25.2717L111.269 0.48505L109.114 0.48507Z" fill="#002e6b" fill-rule="nonzero" opacity="1" stroke="none"/>
</g>
</svg>
