<?xml version="1.0" encoding="UTF-8" standalone="no"?>
<!DOCTYPE svg PUBLIC "-//W3C//DTD SVG 1.1//EN" "http://www.w3.org/Graphics/SVG/1.1/DTD/svg11.dtd">
<!-- Created with Vectornator (http://vectornator.io/) -->
<svg height="100%" stroke-miterlimit="10" style="fill-rule:nonzero;clip-rule:evenodd;stroke-linecap:round;stroke-linejoin:round;" version="1.1" viewBox="0 0 490 491" width="100%" xml:space="preserve" xmlns="http://www.w3.org/2000/svg" xmlns:xlink="http://www.w3.org/1999/xlink">
<defs/>
<g id="Layer-1">
<path d="M207 23C191.667 25.6667 178.5 29 167.5 33C156.5 37 144 43.1667 130 51.5C116 59.8333 103.667 68.8333 93 78.5C82.3333 88.1667 72.8333 98.5 64.5 109.5C56.1667 120.5 48.5 133.167 41.5 147.5C34.5 161.833 29 177.333 25 194C21 210.667 18.8333 226.833 18.5 242.5C18.1667 258.167 19.5 274 22.5 290C25.5 306 30 321.167 36 335.5C42 349.833 49.3333 363.333 58 376C66.6667 388.667 75.6667 399.667 85 409C94.3333 418.333 105.667 427.5 119 436.5C132.333 445.5 146.5 453 161.5 459C176.5 465 190 469.167 202 471.5C214 473.833 227 475.167 241 475.5C255 475.833 267.833 475.167 279.5 473.5C291.167 471.833 303.667 468.833 317 464.5C330.333 460.167 341.833 455.5 351.5 450.5C361.167 445.5 369.167 440.833 375.5 436.5C381.833 432.167 390.833 424.5 402.5 413.5C414.167 402.5 424.333 390.833 433 378.5C441.667 366.167 448.667 354.167 454 342.5C459.333 330.833 463.833 317.667 467.5 303C471.167 288.333 473.333 273 474 257C474.667 241 474 226.333 472 213C470 199.667 467 187 463 175C459 163 452.833 149.667 444.5 135C436.167 120.333 428.667 109 422 101C415.333 93 409.167 86.3333 403.5 81C397.833 75.6667 387.5 68 372.5 58C357.5 48 343.167 40.3333 329.5 35C315.833 29.6667 303.167 25.8333 291.5 23.5C279.833 21.1667 266.667 19.8333 252 19.5C237.333 19.1667 222.333 20.3333 207 23ZM251 25.5C266.333 25.8333 280.833 27.5 294.5 30.5C308.167 33.5 321.833 38 335.5 44C349.167 50 361.333 56.6667 372 64C382.667 71.3333 393.167 80.1667 403.5 90.5C413.833 100.833 422.833 111.667 430.5 123C438.167 134.333 445.167 147.667 451.5 163C457.833 178.333 462.167 191.833 464.5 203.5C466.833 215.167 468.167 228 468.5 242C468.833 256 467.667 270.667 465 286C462.333 301.333 459.167 314 455.5 324C451.833 334 446 345.833 438 359.5C430 373.167 421 385.5 411 396.5C401 407.5 390.167 417.333 378.5 426C366.833 434.667 355.167 441.833 343.5 447.5C331.833 453.167 317.333 458.167 300 462.5C282.667 466.833 266.5 469.167 251.5 469.5C236.5 469.833 221 468.5 205 465.5C189 462.5 173.333 457.667 158 451C142.667 444.333 130.167 437.667 120.5 431C110.833 424.333 100.5 415.5 89.5 404.5C78.5 393.5 68.8333 381.667 60.5 369C52.1667 356.333 45.3333 343.333 40 330C34.6667 316.667 30.6667 302.833 28 288.5C25.3333 274.167 24 260.5 24 247.5C24 234.5 25.3333 220.833 28 206.5C30.6667 192.167 34.6667 178.333 40 165C45.3333 151.667 53 137.667 63 123C73 108.333 83.5 95.8333 94.5 85.5C105.5 75.1667 116.833 66.3333 128.5 59C140.167 51.6667 153 45.3333 167 40C181 34.6667 194.667 30.8333 208 28.5C221.333 26.1667 235.667 25.1667 251 25.5ZM208.5 50.5C196.167 52.8333 183.167 56.8333 169.5 62.5C155.833 68.1667 142.333 75.8333 129 85.5C115.667 95.1667 104.5 105.167 95.5 115.5C86.5 125.833 78.8333 136.5 72.5 147.5C66.1667 158.5 60.6667 171.167 56 185.5C51.3333 199.833 48.3333 213.833 47 227.5C45.6667 241.167 45.8333 255.167 47.5 269.5C49.1667 283.833 51.8333 296.667 55.5 308C59.1667 319.333 64.5 331.333 71.5 344C78.5 356.667 84.5 366.167 89.5 372.5C94.5 378.833 103 387.333 115 398C127 408.667 134 414.333 136 415C138 415.667 139.333 415.333 140 414C140.667 412.667 139.667 410.333 137 407C134.333 403.667 132 399.5 130 394.5C128 389.5 126.833 383.167 126.5 375.5C126.167 367.833 126.667 361.833 128 357.5C129.333 353.167 131 349.667 133 347C134 345.667 135 344.333 136 343C138.5 345.5 141 348 143.5 350.5C148.5 355.5 152.5 360.333 155.5 365C158.5 369.667 160.167 374.333 160.5 379C160.833 383.667 160.667 386.833 160 388.5C159.333 390.167 157.333 392.667 154 396C150.667 399.333 149 402.167 149 404.5C149 406.833 149.333 408.667 150 410C150.667 411.333 152.167 412.667 154.5 414C156.833 415.333 158.333 417.333 159 420C159.667 422.667 161.167 425 163.5 427C165.833 429 169 430.333 173 431C177 431.667 180.5 433.167 183.5 435.5C186.5 437.833 191.167 439 197.5 439C203.833 439 207.667 439.333 209 440C210.333 440.667 222.667 440.667 246 440C269.333 439.333 287.333 439.667 300 441C312.667 442.333 319.167 442.167 319.5 440.5C319.833 438.833 318.833 436 316.5 432C314.167 428 312.333 423 311 417C309.667 411 309.5 404.167 310.5 396.5C311.5 388.833 312.167 384.667 312.5 384C312.833 383.333 316.167 383.167 322.5 383.5C328.833 383.833 334 383.667 338 383C342 382.333 346.667 380.833 352 378.5C357.333 376.167 361 374.167 363 372.5C365 370.833 366.833 368.333 368.5 365C370.167 361.667 370.833 356.333 370.5 349C370.167 341.667 371.5 336.333 374.5 333C377.5 329.667 378.5 327 377.5 325C376.5 323 376.5 321.333 377.5 320C378.5 318.667 379 317.167 379 315.5C379 313.833 378.333 311.833 377 309.5C375.667 307.167 375 304.5 375 301.5C375 298.5 378.667 295.5 386 292.5C393.333 289.5 397.5 287.5 398.5 286.5C399.5 285.5 400.167 283.833 400.5 281.5C400.833 279.167 397.333 269.667 390 253C382.667 236.333 378.833 225.167 378.5 219.5C378.167 213.833 376.5 207.833 373.5 201.5C370.5 195.167 369 191.333 369 190C369 188.667 369.667 187.333 371 186C372.333 184.667 372.5 182.167 371.5 178.5C370.5 174.833 370.667 172.667 372 172C373.333 171.333 374 170.167 374 168.5C374 166.833 371 162.833 365 156.5C359 150.167 356.833 145.833 358.5 143.5C360.167 141.167 361 138.667 361 136C361 133.333 359.833 131.167 357.5 129.5C355.167 127.833 353 127.167 351 127.5C349 127.833 346.833 128.833 344.5 130.5C342.167 132.167 340.167 132.833 338.5 132.5C336.833 132.167 335.667 131.5 335 130.5C334.333 129.5 334.667 128.5 336 127.5C337.333 126.5 338.5 125 339.5 123C340.5 121 340.833 119.5 340.5 118.5C340.167 117.5 337.833 117 333.5 117C329.167 117 325.5 117.5 322.5 118.5C321 119 319.5 119.5 318 120C318.5 118.5 319 117 319.5 115.5C320.5 112.5 321 109.333 321 106C321 102.667 325.333 96.3333 334 87C338.333 82.3333 342.667 77.6667 347 73C343 71 339 69 335 67C327 63 317.667 59.3333 307 56C296.333 52.6667 286.667 50.3333 278 49C269.333 47.6667 258.667 47 246 47C233.333 47 220.833 48.1667 208.5 50.5ZM267 54.5C282.333 56.1667 294 58.1667 302 60.5C310 62.8333 317.667 65.6667 325 69C332.333 72.3333 336.167 74.5 336.5 75.5C336.833 76.5 333.333 81 326 89C318.667 97 309.667 99.1667 299 95.5C288.333 91.8333 278.167 89.3333 268.5 88C258.833 86.6667 247.333 86.5 234 87.5C220.667 88.5 208.667 90.6667 198 94C187.333 97.3333 177 101.833 167 107.5C157 113.167 148.333 119.167 141 125.5C133.667 131.833 126.5 139.5 119.5 148.5C112.5 157.5 106.5 167.167 101.5 177.5C96.5 187.833 92.8333 197.5 90.5 206.5C88.1667 215.5 86.6667 223 86 229C85.3333 235 85.3333 244.167 86 256.5C86.6667 268.833 89 281.667 93 295C97 308.333 101.167 318.833 105.5 326.5C109.833 334.167 114 340.333 118 345C122 349.667 123.333 354.333 122 359C120.667 363.667 120 368.5 120 373.5C120 378.5 121 383.667 123 389C125 394.333 125.833 397.5 125.5 398.5C125.333 399 125.167 399.5 125 400C120.667 395.833 116.333 391.667 112 387.5C103.333 379.167 95.8333 370.667 89.5 362C83.1667 353.333 77.6667 344.5 73 335.5C68.3333 326.5 64.6667 318.167 62 310.5C59.3333 302.833 57 293.833 55 283.5C53 273.167 51.8333 263.5 51.5 254.5C51.1667 245.5 51.5 236.333 52.5 227C53.5 217.667 55.1667 208.333 57.5 199C59.8333 189.667 63.1667 180 67.5 170C71.8333 160 75.8333 152 79.5 146C83.1667 140 87.3333 134 92 128C96.6667 122 104.5 114 115.5 104C126.5 94 137 86 147 80C157 74 167.333 69 178 65C188.667 61 198 58.1667 206 56.5C214 54.8333 222.333 53.6667 231 53C239.667 52.3333 251.667 52.8333 267 54.5ZM248.5 69.5C248 73.3333 247.5 77.1667 247 81C247.667 81 248.333 81 249 81C250.333 81 251.167 80.5 251.5 79.5C251.833 78.5 252.167 74.6667 252.5 68C252.667 64.6667 252.833 61.3333 253 58C252.5 58 252 58 251.5 58C250.5 58 249.5 61.8333 248.5 69.5ZM217 71.5C218.333 79.1667 219.667 83 221 83C221.667 83 222.333 83 223 83C222.333 79.3333 221.667 75.6667 221 72C219.667 64.6667 218.333 60.8333 217 60.5C216.333 60.3333 215.667 60.1667 215 60C215.667 63.8333 216.333 67.6667 217 71.5ZM281 73C279.667 76.6667 278.333 80.3333 277 84C277.667 84 278.333 84 279 84C280.333 84 282.167 81.1667 284.5 75.5C286.833 69.8333 288.167 66.3333 288.5 65C288.667 64.3333 288.833 63.6667 289 63C288.333 62.8333 287.667 62.6667 287 62.5C285.667 62.1667 283.667 65.6667 281 73ZM185.5 79C188.5 85.6667 190.667 89.1667 192 89.5C192.667 89.6667 193.333 89.8333 194 90C192.5 86.5 191 83 189.5 79.5C186.5 72.5 184.333 69 183 69C182.333 69 181.667 69 181 69C182.5 72.3333 184 75.6667 185.5 79ZM308.5 79C304.167 84.3333 302 87.6667 302 89C302 89.6667 302 90.3333 302 91C302.5 91 303 91 303.5 91C304.5 91 307.167 88.3333 311.5 83C315.833 77.6667 318.167 74.5 318.5 73.5C318.667 73 318.833 72.5 319 72C318.333 71.8333 317.667 71.6667 317 71.5C315.667 71.1667 312.833 73.6667 308.5 79ZM150 83.5C149.333 83.8333 149.333 84.8333 150 86.5C150.667 88.1667 153.333 91.3333 158 96C160.333 98.3333 162.667 100.667 165 103C165.333 102.667 165.667 102.333 166 102C166.667 101.333 166.667 100.333 166 99C165.333 97.6667 162.667 94.6667 158 90C153.333 85.3333 150.667 83.1667 150 83.5ZM246.5 92C252.833 92 260.5 92.6667 269.5 94C278.5 95.3333 286.667 97.1667 294 99.5C301.333 101.833 306 103.667 308 105C309 105.667 310 106.333 311 107C309.167 107.833 307.333 108.667 305.5 109.5C301.833 111.167 295.333 110.5 286 107.5C276.667 104.5 266.333 102.667 255 102C243.667 101.333 233.5 101.667 224.5 103C215.5 104.333 208.333 105.833 203 107.5C197.667 109.167 190.833 112 182.5 116C174.167 120 167 124.167 161 128.5C155 132.833 148.333 138.833 141 146.5C133.667 154.167 127.167 162.667 121.5 172C115.833 181.333 111.167 191.833 107.5 203.5C103.833 215.167 101.667 227.167 101 239.5C100.333 251.833 100.5 261.667 101.5 269C102.5 276.333 104.167 283.833 106.5 291.5C108.833 299.167 111.5 306 114.5 312C117.5 318 121.167 323.833 125.5 329.5C129.833 335.167 131.667 339 131 341C130.333 343 129.333 344.333 128 345C126.667 345.667 123.667 342.833 119 336.5C114.333 330.167 110.333 323.667 107 317C103.667 310.333 100.333 300.667 97 288C93.6667 275.333 92 262 92 248C92 234 92.8333 223 94.5 215C96.1667 207 98.1667 199.833 100.5 193.5C102.833 187.167 107.333 178.5 114 167.5C120.667 156.5 129 146.167 139 136.5C149 126.833 157.167 120 163.5 116C169.833 112 176.333 108.5 183 105.5C189.667 102.5 200.333 99.5 215 96.5C229.667 93.5 240.167 92 246.5 92ZM121 106C120.333 107.333 122.833 110 128.5 114C134.167 118 137.667 119.833 139 119.5C139.667 119.333 140.333 119.167 141 119C140.833 118.5 140.667 118 140.5 117.5C140.167 116.5 137 114 131 110C128 108 125 106 122 104C121.667 104.667 121.333 105.333 121 106ZM254 109C265.333 109.667 275.167 111.5 283.5 114.5C287.667 116 291.833 117.5 296 119C294.667 121.167 293.333 123.333 292 125.5C290.667 127.667 289.333 129.833 288 132C287.667 130.5 287.333 129 287 127.5C286.667 126 286.333 124.5 286 123C284.667 123.5 283.333 124 282 124.5C279.333 125.5 275.833 128.5 271.5 133.5C267.167 138.5 264.5 142.667 263.5 146C262.5 149.333 261.667 151 261 151C260.333 151 259.833 149.5 259.5 146.5C259.333 145 259.167 143.5 259 142C257.667 142.667 256.333 143.333 255 144C252.333 145.333 249.667 147.5 247 150.5C244.333 153.5 242.167 157.167 240.5 161.5C239.667 163.667 238.833 165.833 238 168C237.833 167.167 237.667 166.333 237.5 165.5C237.167 163.833 236.5 162.833 235.5 162.5C234.5 162.167 232.5 163 229.5 165C226.5 167 223.667 170 221 174C218.333 178 216.667 181.667 216 185C215.667 186.667 215.333 188.333 215 190C214.667 189.167 214.333 188.333 214 187.5C213.333 185.833 212.5 184.833 211.5 184.5C210.5 184.167 208 186 204 190C200 194 197.167 198.833 195.5 204.5C194.667 207.333 193.833 210.167 193 213C192 212 191 211 190 210C189 209 188 208 187 207C186 208 185 209 184 210C182 212 179.667 215.5 177 220.5C174.333 225.5 173 230.333 173 235C173 237.333 173 239.667 173 242C171.833 240.5 170.667 239 169.5 237.5C168.333 236 167.167 234.5 166 233C165.167 233.667 164.333 234.333 163.5 235C161.833 236.333 159.833 239.333 157.5 244C155.167 248.667 154.167 253.833 154.5 259.5C154.667 262.333 154.833 265.167 155 268C154 266.833 153 265.667 152 264.5C150 262.167 148.5 260.833 147.5 260.5C146.5 260.167 145.667 260.333 145 261C144.333 261.667 142.833 264.5 140.5 269.5C138.167 274.5 137 279.667 137 285C137 287.667 137 290.333 137 293C136 292.333 135 291.667 134 291C132 289.667 130.667 289.167 130 289.5C129.333 289.833 127.833 293 125.5 299C124.333 302 123.167 305 122 308C119.833 302.333 117.667 296.667 115.5 291C111.167 279.667 108.5 270.667 107.5 264C106.5 257.333 106 250 106 242C106 234 106.667 226.333 108 219C109.333 211.667 112.167 202.833 116.5 192.5C120.833 182.167 125.5 173.5 130.5 166.5C135.5 159.5 140.167 153.833 144.5 149.5C148.833 145.167 154.167 140.667 160.5 136C166.833 131.333 175 126.667 185 122C195 117.333 206.167 113.833 218.5 111.5C230.833 109.167 242.667 108.333 254 109ZM315 108C315.667 108 316.333 108 317 108C317 108.333 317 108.667 317 109C317 109.667 316 112.333 314 117C312 121.667 309 125.833 305 129.5C301 133.167 297.167 135.833 293.5 137.5C291.667 138.333 289.833 139.167 288 140C289.333 137 290.667 134 292 131C294.667 125 298.833 119.667 304.5 115C310.167 110.333 313.667 108 315 108ZM331.5 120C332.667 120 333.833 120 335 120C335 120.5 335 121 335 121.5C335 122.5 333.667 124.5 331 127.5C328.333 130.5 325 133 321 135C317 137 312.667 138.333 308 139C305.667 139.333 303.333 139.667 301 140C301.167 139.333 301.333 138.667 301.5 138C301.833 136.667 303.833 134.333 307.5 131C311.167 127.667 315.5 125 320.5 123C325.5 121 329.167 120 331.5 120ZM283 126C283.333 127.167 283.667 128.333 284 129.5C284.667 131.833 284.833 134.5 284.5 137.5C284.167 140.5 280.833 145.5 274.5 152.5C271.333 156 268.167 159.5 265 163C264.833 161.167 264.667 159.333 264.5 157.5C264.167 153.833 264.333 150.833 265 148.5C265.667 146.167 267 143.333 269 140C271 136.667 273.833 133.5 277.5 130.5C279.333 129 281.167 127.5 283 126ZM95.5 133C95.1667 134.333 98.5 136.333 105.5 139C112.5 141.667 116.5 142.667 117.5 142C118.5 141.333 119 140.667 119 140C119 139.333 115.167 137.667 107.5 135C103.667 133.667 99.8333 132.333 96 131C95.8333 131.667 95.6667 132.333 95.5 133ZM353.5 134C355.833 134.667 357 135.667 357 137C357 138.333 356 140.167 354 142.5C352 144.833 352.667 148.333 356 153C359.333 157.667 362.5 161.167 365.5 163.5C368.5 165.833 369.833 167.667 369.5 169C369.167 170.333 362.167 173.167 348.5 177.5C334.833 181.833 322.833 186.833 312.5 192.5C302.167 198.167 293.167 205 285.5 213C277.833 221 269.333 232.167 260 246.5C250.667 260.833 245.167 268.667 243.5 270C241.833 271.333 239.667 270.5 237 267.5C234.333 264.5 237.833 255.833 247.5 241.5C257.167 227.167 266.333 214.833 275 204.5C283.667 194.167 294 183 306 171C318 159 328.333 149.667 337 143C345.667 136.333 351.167 133.333 353.5 134ZM327.5 135C328.5 135 329.833 135.833 331.5 137.5C332.333 138.333 333.167 139.167 334 140C332 141.5 330 143 328 144.5C324 147.5 314.833 156.5 300.5 171.5C286.167 186.5 274.167 200.167 264.5 212.5C254.833 224.833 247 235.833 241 245.5C235 255.167 229.833 260.5 225.5 261.5C221.167 262.5 217.5 264.167 214.5 266.5C211.5 268.833 209.333 271.667 208 275C206.667 278.333 206.333 283.833 207 291.5C207.667 299.167 206.333 305 203 309C201.333 311 199.667 313 198 315C198.833 314.833 199.667 314.667 200.5 314.5C202.167 314.167 204.167 312.667 206.5 310C208.833 307.333 210.5 306.167 211.5 306.5C212.5 306.833 213.167 307.833 213.5 309.5C213.833 311.167 211.333 314.333 206 319C200.667 323.667 195.333 327.5 190 330.5C187.333 332 184.667 333.5 182 335C183.333 335 184.667 335 186 335C188.667 335 192 334 196 332C200 330 204.667 326.833 210 322.5C212.667 320.333 215.333 318.167 218 316C218.833 317.333 219.667 318.667 220.5 320C222.167 322.667 222.833 326.667 222.5 332C222.167 337.333 223 346 225 358C227 370 227.333 376.833 226 378.5C224.667 380.167 218.833 381 208.5 381C198.167 381 190.833 381.5 186.5 382.5C182.167 383.5 179.667 384.667 179 386C178.667 386.667 178.333 387.333 178 388C179.667 387.667 181.333 387.333 183 387C186.333 386.333 194.333 386 207 386C219.667 386 226.667 385.5 228 384.5C229.333 383.5 230.333 380.5 231 375.5C231.667 370.5 231 363 229 353C227 343 226 336.833 226 334.5C226 332.167 226.333 330.833 227 330.5C227.667 330.167 229.167 330.5 231.5 331.5C233.833 332.5 235.167 334.667 235.5 338C235.833 341.333 237.333 347.167 240 355.5C242.667 363.833 244.167 371.167 244.5 377.5C244.833 383.833 244.667 388 244 390C243.333 392 242 393.667 240 395C238 396.333 228.333 396.667 211 396C193.667 395.333 181.5 395.333 174.5 396C171 396.333 167.5 396.667 164 397C164.667 394.167 165.333 391.333 166 388.5C167.333 382.833 167.833 378.667 167.5 376C167.167 373.333 165.5 369.333 162.5 364C159.5 358.667 155.667 353.333 151 348C148.667 345.333 146.333 342.667 144 340C146.667 339.5 149.333 339 152 338.5C157.333 337.5 162 335.5 166 332.5C170 329.5 173 325.5 175 320.5C176 318 177 315.5 178 313C176.833 312.833 175.667 312.667 174.5 312.5C173.333 312.333 172.167 312.167 171 312C172.833 310.667 174.667 309.333 176.5 308C180.167 305.333 183.167 301.667 185.5 297C187.833 292.333 188.833 289.5 188.5 288.5C188.167 287.5 187 286.833 185 286.5C184 286.333 183 286.167 182 286C184 285 186 284 188 283C192 281 195 278.667 197 276C199 273.333 200.5 270.333 201.5 267C202 265.333 202.5 263.667 203 262C202 262 201 262 200 262C199 262 198 262 197 262C197 261.667 197 261.333 197 261C197 260.333 198.5 259.333 201.5 258C204.5 256.667 207.167 254.667 209.5 252C211.833 249.333 213.667 246.167 215 242.5C215.667 240.667 216.333 238.833 217 237C216.167 236.833 215.333 236.667 214.5 236.5C213.667 236.333 212.833 236.167 212 236C214.167 235.167 216.333 234.333 218.5 233.5C222.833 231.833 226.333 229.833 229 227.5C231.667 225.167 233.833 222.667 235.5 220C237.167 217.333 238 215.333 238 214C238 212.667 237.167 211.667 235.5 211C234.667 210.667 233.833 210.333 233 210C234.667 209.667 236.333 209.333 238 209C241.333 208.333 244.5 207.167 247.5 205.5C250.5 203.833 253.5 201 256.5 197C258 195 259.5 193 261 191C259.833 190.333 258.667 189.667 257.5 189C256.333 188.333 255.167 187.667 254 187C256.333 186.667 258.667 186.333 261 186C265.667 185.333 270.167 183.833 274.5 181.5C278.833 179.167 282.167 176.5 284.5 173.5C286.833 170.5 288 168.5 288 167.5C288 166.5 287.5 165.667 286.5 165C286 164.667 285.5 164.333 285 164C287.667 163 290.333 162 293 161C298.333 159 302.167 157 304.5 155C306.833 153 309.167 150 311.5 146C313.833 142 316.833 139.167 320.5 137.5C324.167 135.833 326.5 135 327.5 135ZM303.5 144C304.667 144 305.833 144 307 144C307 144.5 307 145 307 145.5C307 146.5 305.5 148.667 302.5 152C299.5 155.333 296.167 157.833 292.5 159.5C288.833 161.167 284.333 162.167 279 162.5C276.333 162.667 273.667 162.833 271 163C273.167 160.667 275.333 158.333 277.5 156C281.833 151.333 286.667 148.167 292 146.5C297.333 144.833 301.167 144 303.5 144ZM255 146C255.5 146.5 256 147 256.5 147.5C257.5 148.5 258 151.333 258 156C258 160.667 257 164.5 255 167.5C253 170.5 250 173.833 246 177.5C244 179.333 242 181.167 240 183C240.333 179.5 240.667 176 241 172.5C241.667 165.5 244.167 159.333 248.5 154C250.667 151.333 252.833 148.667 255 146ZM75.5 164.5C75.3333 165 75.1667 165.5 75 166C75.6667 166.167 76.3333 166.333 77 166.5C78.3333 166.833 81.3333 167.333 86 168C90.6667 168.667 94.1667 169 96.5 169C98.8333 169 100.167 168.667 100.5 168C100.833 167.333 100.667 166.667 100 166C99.3333 165.333 95.1667 164.667 87.5 164C79.8333 163.333 75.8333 163.5 75.5 164.5ZM232.5 167.5C233.5 167.833 234.167 168.667 234.5 170C234.833 171.333 234.667 174.5 234 179.5C233.333 184.5 230.5 189.5 225.5 194.5C223 197 220.5 199.5 218 202C217.833 200.167 217.667 198.333 217.5 196.5C217.167 192.833 217.5 189 218.5 185C219.5 181 221.833 177 225.5 173C229.167 169 231.5 167.167 232.5 167.5ZM274 167C277 167 280 167 283 167C282.167 168.5 281.333 170 280.5 171.5C278.833 174.5 276 177.167 272 179.5C268 181.833 262.5 183.333 255.5 184C252 184.333 248.5 184.667 245 185C246.667 182.833 248.333 180.667 250 178.5C253.333 174.167 256.667 171.167 260 169.5C263.333 167.833 268 167 274 167ZM363.5 180C364.333 180 365.167 180 366 180C366 180.5 366 181 366 181.5C366 182.5 365.167 183.833 363.5 185.5C361.833 187.167 358.667 188.5 354 189.5C351.667 190 349.333 190.5 347 191C347.167 189.833 347.333 188.667 347.5 187.5C347.833 185.167 350.167 183.333 354.5 182C358.833 180.667 361.833 180 363.5 180ZM338 186C339 186 340 186 341 186C340.5 187.667 340 189.333 339.5 191C338.5 194.333 336.833 197 334.5 199C332.167 201 329.333 202.333 326 203C324.333 203.333 322.667 203.667 321 204C321 202 321 200 321 198C321 194 323.333 191 328 189C332.667 187 336 186 338 186ZM364.5 189.5C365.5 189.833 367.333 193.167 370 199.5C372.667 205.833 374.667 213.167 376 221.5C377.333 229.833 381.167 240.667 387.5 254C393.833 267.333 397.167 275.667 397.5 279C397.833 282.333 396.5 285 393.5 287C390.5 289 386.833 290.667 382.5 292C378.167 293.333 375.333 294.833 374 296.5C372.667 298.167 372.5 301 373.5 305C374.5 309 373.333 311.667 370 313C366.667 314.333 363.667 316.333 361 319C358.333 321.667 356 323 354 323C353 323 352 323 351 323C352.333 323.167 353.667 323.333 355 323.5C357.667 323.833 361 322.333 365 319C369 315.667 372 314.167 374 314.5C375 314.667 376 314.833 377 315C376.833 315.667 376.667 316.333 376.5 317C376.167 318.333 375.333 319.333 374 320C373.333 320.333 372.667 320.667 372 321C372.667 321.667 373.333 322.333 374 323C375.333 324.333 375.5 326 374.5 328C373.5 330 370.833 330.5 366.5 329.5C364.333 329 362.167 328.5 360 328C360.5 328.5 361 329 361.5 329.5C362.5 330.5 364.167 331.167 366.5 331.5C367.667 331.667 368.833 331.833 370 332C369.333 334 368.667 336 368 338C366.667 342 366.167 346.833 366.5 352.5C366.833 358.167 366.5 362 365.5 364C364.5 366 362.833 368 360.5 370C358.167 372 354.333 374 349 376C343.667 378 337.667 379.167 331 379.5C324.333 379.833 318.667 379.5 314 378.5C309.333 377.5 303.333 375.333 296 372C288.667 368.667 281.167 364.167 273.5 358.5C265.833 352.833 258.667 346.667 252 340C245.333 333.333 242.167 328.333 242.5 325C242.667 323.333 242.833 321.667 243 320C241.667 321.333 240.333 322.667 239 324C236.333 326.667 233.833 327.5 231.5 326.5C229.167 325.5 226.833 322.667 224.5 318C222.167 313.333 220 310.167 218 308.5C216 306.833 214.333 304.667 213 302C211.667 299.333 210.667 296.667 210 294C209.333 291.333 209.167 288 209.5 284C209.833 280 211.167 276.167 213.5 272.5C215.833 268.833 219.167 266.667 223.5 266C227.833 265.333 231.333 266 234 268C236.667 270 239.167 274.167 241.5 280.5C243.833 286.833 246.5 290.167 249.5 290.5C252.5 290.833 254.667 290.667 256 290C257.333 289.333 259.5 290.5 262.5 293.5C265.5 296.5 269.167 297.833 273.5 297.5C277.833 297.167 281 295.333 283 292C285 288.667 286.333 284.667 287 280C287.667 275.333 289.333 271.667 292 269C294.667 266.333 296.667 263.167 298 259.5C299.333 255.833 299.833 252.167 299.5 248.5C299.167 244.833 298.167 241.667 296.5 239C294.833 236.333 294.333 233.833 295 231.5C295.667 229.167 298 227.167 302 225.5C306 223.833 309.667 220.833 313 216.5C316.333 212.167 320.333 209.5 325 208.5C329.667 207.5 334 205 338 201C342 197 345.667 195 349 195C352.333 195 355.5 194 358.5 192C361.5 190 363.5 189.167 364.5 189.5ZM209 190C209.667 190 210.333 191.167 211 193.5C211.667 195.833 211.833 198.833 211.5 202.5C211.167 206.167 210.167 209.667 208.5 213C206.833 216.333 204.667 219.167 202 221.5C200.667 222.667 199.333 223.833 198 225C197.667 224.167 197.333 223.333 197 222.5C196.333 220.833 196.167 217.5 196.5 212.5C196.833 207.5 197.667 203.667 199 201C200.333 198.333 202.167 195.833 204.5 193.5C206.833 191.167 208.333 190 209 190ZM247 190.5C251.667 190.833 254.167 191.5 254.5 192.5C254.833 193.5 254.333 195 253 197C251.667 199 248.5 201.333 243.5 204C238.5 206.667 233.167 208.167 227.5 208.5C224.667 208.667 221.833 208.833 219 209C219.167 208.333 219.333 207.667 219.5 207C219.833 205.667 221.667 203.167 225 199.5C228.333 195.833 231.667 193.333 235 192C238.333 190.667 242.333 190.167 247 190.5ZM71.5 196C65.8333 196.667 63 197.667 63 199C63 199.667 63 200.333 63 201C67 200.667 71 200.333 75 200C83 199.333 87.1667 198.333 87.5 197C87.6667 196.333 87.8333 195.667 88 195C86.6667 195 85.3333 195 84 195C81.3333 195 77.1667 195.333 71.5 196ZM312.5 198.5C313.5 198.833 314 200.167 314 202.5C314 204.833 313.667 207 313 209C312.333 211 310.833 213.333 308.5 216C306.167 218.667 303.333 220.333 300 221C296.667 221.667 293.833 223.5 291.5 226.5C289.167 229.5 286.667 230.667 284 230C282.667 229.667 281.333 229.333 280 229C280.5 227.667 281 226.333 281.5 225C282.5 222.333 285.167 218.833 289.5 214.5C293.833 210.167 298.5 206.333 303.5 203C308.5 199.667 311.5 198.167 312.5 198.5ZM186 212C186.833 213.167 187.667 214.333 188.5 215.5C190.167 217.833 191 221 191 225C191 229 190 233 188 237C186 241 183.833 244 181.5 246C180.333 247 179.167 248 178 249C177.5 247.833 177 246.667 176.5 245.5C175.5 243.167 175 240.167 175 236.5C175 232.833 175.667 229.167 177 225.5C178.333 221.833 180.167 218.667 182.5 216C183.667 214.667 184.833 213.333 186 212ZM226.5 214C228.333 214 230.167 214 232 214C231.833 215 231.667 216 231.5 217C231.167 219 229.667 221.5 227 224.5C224.333 227.5 221 229.833 217 231.5C213 233.167 208.333 234.167 203 234.5C200.333 234.667 197.667 234.833 195 235C197.5 232.167 200 229.333 202.5 226.5C207.5 220.833 211.833 217.333 215.5 216C219.167 214.667 222.833 214 226.5 214ZM346 216.5C343.333 217.5 339 220.333 333 225C330 227.333 327 229.667 324 232C324.5 232 325 232 325.5 232C326.5 232 330.5 229.667 337.5 225C344.5 220.333 349.167 218 351.5 218C353.833 218 355.833 218.667 357.5 220C358.333 220.667 359.167 221.333 360 222C359.5 221 359 220 358.5 219C357.5 217 355.833 215.833 353.5 215.5C351.167 215.167 348.667 215.5 346 216.5ZM68.5 229C60.8333 231.667 57 233.667 57 235C57 235.667 57 236.333 57 237C60.8333 235.833 64.6667 234.667 68.5 233.5C76.1667 231.167 80 229.167 80 227.5C80 226.667 80 225.833 80 225C76.1667 226.333 72.3333 227.667 68.5 229ZM354.5 228C354.167 229.333 352.333 230.333 349 231C345.667 231.667 341.833 233.667 337.5 237C333.167 240.333 329 242.833 325 244.5C323 245.333 321 246.167 319 247C324.833 247.5 330.667 248 336.5 248.5C342.333 249 348.167 249.5 354 250C354 247 354 244 354 241C354 235 354.667 231.833 356 231.5C356.667 231.333 357.333 231.167 358 231C357.5 230.167 357 229.333 356.5 228.5C356 227.667 355.5 226.833 355 226C354.833 226.667 354.667 227.333 354.5 228ZM278 237C280 238.333 281 240.5 281 243.5C281 246.5 278.667 250.5 274 255.5C269.333 260.5 267 264 267 266C267 267 267 268 267 269C270 266.333 273 263.667 276 261C282 255.667 285.333 250.333 286 245C286.667 239.667 287.5 237 288.5 237C289.5 237 290.667 238 292 240C293.333 242 294.167 245 294.5 249C294.833 253 294.333 256.5 293 259.5C291.667 262.5 289.333 265.667 286 269C282.667 272.333 281 276.333 281 281C281 285.667 280.667 288.667 280 290C279.333 291.333 277.667 292.5 275 293.5C272.333 294.5 269.333 293.5 266 290.5C262.667 287.5 260.833 280.833 260.5 270.5C260.167 260.167 261.167 253 263.5 249C265.833 245 268.333 241.667 271 239C273.667 236.333 276 235.667 278 237ZM350 236C351.333 236.667 352 238.333 352 241C352 243.667 351.667 245.333 351 246C350.333 246.667 346.833 246.833 340.5 246.5C337.333 246.333 334.167 246.167 331 246C331.167 245.5 331.333 245 331.5 244.5C331.833 243.5 334.667 241.667 340 239C345.333 236.333 348.667 235.333 350 236ZM163 239C164.333 240.167 165.667 241.333 167 242.5C169.667 244.833 171.333 247.667 172 251C172.667 254.333 172.167 258.333 170.5 263C168.833 267.667 166.833 271 164.5 273C163.333 274 162.167 275 161 276C160.333 274.5 159.667 273 159 271.5C157.667 268.5 156.833 265 156.5 261C156.167 257 157.167 252.333 159.5 247C160.667 244.333 161.833 241.667 163 239ZM207.5 239C209.167 239 210.333 239.5 211 240.5C211.667 241.5 210.333 244.167 207 248.5C203.667 252.833 199.5 256 194.5 258C189.5 260 185.167 261 181.5 261C179.667 261 177.833 261 176 261C178.167 258.167 180.333 255.333 182.5 252.5C186.833 246.833 191.667 243.167 197 241.5C202.333 239.833 205.833 239 207.5 239ZM68 263.5C61.3333 267.833 58 270.5 58 271.5C58 272 58 272.5 58 273C59 272.833 60 272.667 61 272.5C63 272.167 66.5 270.333 71.5 267C76.5 263.667 79.1667 261.167 79.5 259.5C79.6667 258.667 79.8333 257.833 80 257C79.6667 257 79.3333 257 79 257C78.3333 257 74.6667 259.167 68 263.5ZM254 264C254.5 264.667 255 265.333 255.5 266C256.5 267.333 256.833 270 256.5 274C256.167 278 255.5 280.833 254.5 282.5C253.5 284.167 252.167 285.167 250.5 285.5C248.833 285.833 247.5 284.667 246.5 282C245.5 279.333 246.5 275.667 249.5 271C251 268.667 252.5 266.333 254 264ZM191 265C193 265 195 265 197 265C196.833 266 196.667 267 196.5 268C196.167 270 194.5 272.667 191.5 276C188.5 279.333 185.333 281.667 182 283C178.667 284.333 174.333 285.333 169 286C166.333 286.333 163.667 286.667 161 287C161.5 285.667 162 284.333 162.5 283C163.5 280.333 165.167 277.667 167.5 275C169.833 272.333 173.333 270 178 268C182.667 266 187 265 191 265ZM145 267C146.167 267.667 147.333 268.333 148.5 269C150.833 270.333 152.5 272.333 153.5 275C154.5 277.667 154.833 281.5 154.5 286.5C154.167 291.5 152.667 295.833 150 299.5C148.667 301.333 147.333 303.167 146 305C144.833 302.833 143.667 300.667 142.5 298.5C140.167 294.167 139.167 289.667 139.5 285C139.833 280.333 140.833 276.167 142.5 272.5C143.333 270.667 144.167 268.833 145 267ZM220.5 274.5C218.167 276.833 216.833 280.833 216.5 286.5C216.167 292.167 217.167 296.667 219.5 300C221.833 303.333 224 305.333 226 306C228 306.667 229.333 308.167 230 310.5C230.667 312.833 231.833 314.167 233.5 314.5C234.333 314.667 235.167 314.833 236 315C236.167 314.167 236.333 313.333 236.5 312.5C236.667 311.667 236.833 310.833 237 310C236.167 310.333 235.333 310.667 234.5 311C233.667 311.333 232.833 311.667 232 312C231.833 311.167 231.667 310.333 231.5 309.5C231.167 307.833 229.667 306.167 227 304.5C224.333 302.833 222.167 300.667 220.5 298C218.833 295.333 218.167 291.5 218.5 286.5C218.833 281.5 220.167 278 222.5 276C224.833 274 226.667 273.667 228 275C229.333 276.333 229.833 279.667 229.5 285C229.167 290.333 229.333 293.5 230 294.5C230.667 295.5 231.667 296 233 296C233.667 296 234.333 296 235 296C234.5 295.5 234 295 233.5 294.5C232.5 293.5 232.333 290.167 233 284.5C233.667 278.833 233.667 275.5 233 274.5C232.333 273.5 230.667 272.667 228 272C225.333 271.333 222.833 272.167 220.5 274.5ZM362 277C361.333 279.667 361 282.5 361 285.5C361 288.5 361.333 290.333 362 291C362.667 291.667 363.833 292 365.5 292C367.167 292 369.833 290.833 373.5 288.5C377.167 286.167 380 284.833 382 284.5C383 284.333 384 284.167 385 284C384.667 283.667 384.333 283.333 384 283C383.333 282.333 380.5 283.333 375.5 286C370.5 288.667 367.333 290 366 290C364.667 290 363.667 289.667 363 289C362.333 288.333 362.167 285.5 362.5 280.5C362.667 278 362.833 275.5 363 273C362.667 274.333 362.333 275.667 362 277ZM75 297C69.6667 303 67.1667 306.667 67.5 308C67.6667 308.667 67.8333 309.333 68 310C71 307 74 304 77 301C83 295 85.8333 291.333 85.5 290C85.1667 288.667 84.6667 288 84 288C83.3333 288 80.3333 291 75 297ZM178.5 290C181.5 290 183.167 290.333 183.5 291C183.833 291.667 183.167 293.667 181.5 297C179.833 300.333 178 303 176 305C174 307 171 308.833 167 310.5C163 312.167 159 313.167 155 313.5C153 313.667 151 313.833 149 314C149.167 312.667 149.333 311.333 149.5 310C149.833 307.333 151 304.5 153 301.5C155 298.5 157 296.333 159 295C161 293.667 164 292.5 168 291.5C172 290.5 175.5 290 178.5 290ZM130 295C131.167 295.667 132.333 296.333 133.5 297C135.833 298.333 138 301.333 140 306C142 310.667 142.667 315.167 142 319.5C141.333 323.833 140.167 327.333 138.5 330C137.667 331.333 136.833 332.667 136 334C135 333.333 134 332.667 133 332C131 330.667 129.167 328.167 127.5 324.5C125.833 320.833 125.167 316.667 125.5 312C125.833 307.333 126.667 303.333 128 300C128.667 298.333 129.333 296.667 130 295ZM170.5 315.5C171.333 315.667 172.167 315.833 173 316C172.833 316.667 172.667 317.333 172.5 318C172.167 319.333 170.333 322.167 167 326.5C163.667 330.833 160.5 333.667 157.5 335C154.5 336.333 150.833 337 146.5 337C144.333 337 142.167 337 140 337C141.5 334.167 143 331.333 144.5 328.5C147.5 322.833 152.167 319.167 158.5 317.5C164.833 315.833 168.833 315.167 170.5 315.5ZM88.5 329.5C84.8333 336.5 83.1667 340.833 83.5 342.5C83.6667 343.333 83.8333 344.167 84 345C86.1667 341.333 88.3333 337.667 90.5 334C94.8333 326.667 97 322.5 97 321.5C97 320.5 96.5 319.833 95.5 319.5C94.5 319.167 92.1667 322.5 88.5 329.5ZM240 334C246 339.333 252 344.667 258 350C270 360.667 279.833 368.167 287.5 372.5C295.167 376.833 300.833 379.5 304.5 380.5C308.167 381.5 309.167 385.5 307.5 392.5C305.833 399.5 305 405.5 305 410.5C305 415.5 306 421.333 308 428C309 431.333 310 434.667 311 438C307.333 437.333 303.667 436.667 300 436C292.667 434.667 279.833 434.333 261.5 435C252.333 435.333 243.167 435.667 234 436C234.333 434 234.667 432 235 430C235.667 426 237.833 423.333 241.5 422C245.167 420.667 247.667 418.833 249 416.5C250.333 414.167 251 411.667 251 409C251 406.333 250.333 403.833 249 401.5C247.667 399.167 247.5 395.833 248.5 391.5C249.5 387.167 249.833 382.667 249.5 378C249.167 373.333 247.5 364.833 244.5 352.5C243 346.333 241.5 340.167 240 334ZM106.5 357C104.167 365.667 103.333 370.5 104 371.5C104.667 372.5 105.333 373 106 373C106.667 373 108 369 110 361C112 353 113 348.5 113 347.5C113 346.5 112.5 345.667 111.5 345C111 344.667 110.5 344.333 110 344C108.833 348.333 107.667 352.667 106.5 357ZM159 398.5C160.333 398.833 160.667 400.667 160 404C159.333 407.333 158.167 409 156.5 409C154.833 409 153.833 407.667 153.5 405C153.167 402.333 153.667 400.5 155 399.5C156.333 398.5 157.667 398.167 159 398.5ZM210.5 400.5C214.833 400.833 217.667 403.5 219 408.5C220.333 413.5 222.833 417.167 226.5 419.5C230.167 421.833 231.833 424.167 231.5 426.5C231.167 428.833 230 431 228 433C226 435 222.167 436.167 216.5 436.5C210.833 436.833 207 436.167 205 434.5C203 432.833 201.333 428.833 200 422.5C198.667 416.167 198.5 411 199.5 407C200.5 403 201.5 400.833 202.5 400.5C203.5 400.167 206.167 400.167 210.5 400.5ZM188.5 401.5C190.333 401.667 192.167 401.833 194 402C193.667 405.667 193.333 409.333 193 413C192.333 420.333 192.833 425.5 194.5 428.5C196.167 431.5 196.667 433.5 196 434.5C195.333 435.5 193.5 435.667 190.5 435C187.5 434.333 185.333 433.167 184 431.5C182.667 429.833 181.667 425.667 181 419C180.333 412.333 180.5 407.667 181.5 405C182.5 402.333 184.833 401.167 188.5 401.5ZM243.5 403C245.167 404.333 245.833 406.667 245.5 410C245.167 413.333 244.333 415.5 243 416.5C241.667 417.5 239.167 417.833 235.5 417.5C231.833 417.167 229.167 416 227.5 414C225.833 412 224.833 409.833 224.5 407.5C224.167 405.167 226.833 403.5 232.5 402.5C238.167 401.5 241.833 401.667 243.5 403ZM173 402.5C175 402.833 176 407 176 415C176 419 176 423 176 427C174.667 426.833 173.333 426.667 172 426.5C169.333 426.167 167.167 425 165.5 423C163.833 421 163.167 417.333 163.5 412C163.833 406.667 165 403.667 167 403C169 402.333 171 402.167 173 402.5Z" fill="#006c66" fill-rule="nonzero" opacity="1" stroke="none"/>
</g>
</svg>
