<?xml version="1.0" encoding="UTF-8" standalone="no"?>
<!DOCTYPE svg PUBLIC "-//W3C//DTD SVG 1.1//EN" "http://www.w3.org/Graphics/SVG/1.1/DTD/svg11.dtd">
<!-- Created with Vectornator (http://vectornator.io/) -->
<svg height="100%" stroke-miterlimit="10" style="fill-rule:nonzero;clip-rule:evenodd;stroke-linecap:round;stroke-linejoin:round;" version="1.1" viewBox="0 0 2597.05 1410" width="100%" xml:space="preserve" xmlns="http://www.w3.org/2000/svg" xmlns:xlink="http://www.w3.org/1999/xlink">
<defs/>
<g id="Layer-1">
<path d="M144.574 194.25C144.324 212.25 144.074 230.25 143.824 248.25C168.074 248.25 192.324 248.25 216.574 248.25C265.074 248.25 292.074 249 297.574 250.5C303.074 252 308.324 255.25 313.324 260.25C318.324 265.25 321.574 270.25 323.074 275.25C324.574 280.25 325.324 334.25 325.324 437.25C325.324 540.25 326.074 599.25 327.574 614.25C329.074 629.25 332.074 644.75 336.574 660.75C341.074 676.75 346.074 690.5 351.574 702C357.074 713.5 363.824 725 371.824 736.5C379.824 748 388.324 758.5 397.324 768C406.324 777.5 419.074 788.5 435.574 801C452.074 813.5 467.574 823.75 482.074 831.75C496.574 839.75 513.574 847.75 533.074 855.75C552.574 863.75 576.324 871.75 604.324 879.75C632.324 887.75 656.324 893.75 676.324 897.75C696.324 901.75 721.574 905.75 752.074 909.75C782.574 913.75 817.324 917 856.324 919.5C895.324 922 927.574 923.25 953.074 923.25C965.824 923.25 978.574 923.25 991.324 923.25C991.324 957 991.324 990.75 991.324 1024.5C991.324 1092 990.324 1128.5 988.324 1134C986.324 1139.5 983.324 1144.25 979.324 1148.25C975.324 1152.25 970.074 1155.5 963.574 1158C957.074 1160.5 930.074 1161.75 882.574 1161.75C858.824 1161.75 835.074 1161.75 811.324 1161.75C811.324 1179.75 811.324 1197.75 811.324 1215.75C811.324 1233.75 811.324 1251.75 811.324 1269.75C1042.57 1269.75 1273.82 1269.75 1505.07 1269.75C1967.57 1269.75 2206.57 1268.25 2222.07 1265.25C2237.57 1262.25 2254.32 1256.75 2272.32 1248.75C2290.32 1240.75 2303.82 1233.5 2312.82 1227C2321.82 1220.5 2329.82 1213.75 2336.82 1206.75C2343.82 1199.75 2351.82 1189.5 2360.82 1176C2369.82 1162.5 2376.82 1148.5 2381.82 1134C2386.82 1119.5 2390.07 1103.25 2391.57 1085.25C2393.07 1067.25 2392.32 1049.75 2389.32 1032.75C2386.32 1015.75 2381.82 1000.5 2375.82 987C2369.82 973.5 2363.07 961.5 2355.57 951C2348.07 940.5 2337.07 929 2322.57 916.5C2308.07 904 2294.82 894.75 2282.82 888.75C2270.82 882.75 2256.32 877.5 2239.32 873C2230.82 870.75 2222.32 868.5 2213.82 866.25C2214.32 865.5 2214.82 864.75 2215.32 864C2216.32 862.5 2220.57 861.25 2228.07 860.25C2235.57 859.25 2244.32 857 2254.32 853.5C2264.32 850 2276.32 844 2290.32 835.5C2304.32 827 2316.07 818 2325.57 808.5C2335.07 799 2344.32 786.75 2353.32 771.75C2362.32 756.75 2368.82 742.5 2372.82 729C2376.82 715.5 2379.07 699.25 2379.57 680.25C2380.07 661.25 2378.07 643.25 2373.57 626.25C2369.07 609.25 2362.57 593.75 2354.07 579.75C2345.57 565.75 2337.07 554.5 2328.57 546C2320.07 537.5 2311.07 530 2301.57 523.5C2292.07 517 2279.57 510.5 2264.07 504C2248.57 497.5 2234.57 493 2222.07 490.5C2209.57 488 2125.82 486.5 1970.82 486C1893.32 485.75 1815.82 485.5 1738.32 485.25C1738.32 452.25 1738.32 419.25 1738.32 386.25C1738.32 320.25 1739.32 283.75 1741.32 276.75C1743.32 269.75 1745.82 264.5 1748.82 261C1751.82 257.5 1756.82 254.5 1763.82 252C1770.82 249.5 1798.57 248.25 1847.07 248.25C1871.32 248.25 1895.57 248.25 1919.82 248.25C1919.57 230.25 1919.32 212.25 1919.07 194.25C1918.82 176.25 1918.57 158.25 1918.32 140.25C1822.82 140.25 1727.32 140.25 1631.82 140.25C1536.32 140.25 1440.82 140.25 1345.32 140.25C1345.32 158.25 1345.32 176.25 1345.32 194.25C1345.32 212.25 1345.32 230.25 1345.32 248.25C1369.57 248.25 1393.82 248.25 1418.07 248.25C1466.57 248.25 1493.82 249.25 1499.82 251.25C1505.82 253.25 1510.82 256.25 1514.82 260.25C1518.82 264.25 1521.82 269.5 1523.82 276C1525.82 282.5 1526.57 319.25 1526.07 386.25C1525.82 419.75 1525.57 453.25 1525.32 486.75C1406.32 486.75 1287.32 486.75 1168.32 486.75C1049.32 486.75 930.324 486.75 811.324 486.75C811.324 504.75 811.324 522.75 811.324 540.75C811.324 558.75 811.324 576.75 811.324 594.75C835.324 594.75 859.324 594.75 883.324 594.75C931.324 594.75 957.574 595.5 962.074 597C966.574 598.5 971.574 601.75 977.074 606.75C982.574 611.75 986.324 617 988.324 622.5C990.324 628 991.324 661.75 991.324 723.75C991.324 754.75 991.324 785.75 991.324 816.75C984.074 816.75 976.824 816.75 969.574 816.75C955.074 816.75 936.324 815.5 913.324 813C890.324 810.5 869.574 807 851.074 802.5C832.574 798 815.324 792.25 799.324 785.25C783.324 778.25 770.574 771.5 761.074 765C751.574 758.5 742.074 750.25 732.574 740.25C723.074 730.25 714.824 719 707.824 706.5C700.824 694 695.324 680.75 691.324 666.75C687.324 652.75 684.574 639 683.074 625.5C681.574 612 680.824 552.5 680.824 447C680.824 341.5 681.324 286.25 682.324 281.25C683.324 276.25 685.574 271 689.074 265.5C692.574 260 698.324 255.75 706.324 252.75C714.324 249.75 742.324 248.25 790.324 248.25C814.324 248.25 838.324 248.25 862.324 248.25C862.324 230.25 862.324 212.25 862.324 194.25C862.324 176.25 862.324 158.25 862.324 140.25C742.824 140.25 623.324 140.25 503.824 140.25C384.324 140.25 264.824 140.25 145.324 140.25C145.074 158.25 144.824 176.25 144.574 194.25ZM1945.32 593.25C1971.32 593.25 1989.32 594 1999.32 595.5C2009.32 597 2019.82 600.5 2030.82 606C2041.82 611.5 2051.82 618.75 2060.82 627.75C2069.82 636.75 2077.07 647.5 2082.57 660C2088.07 672.5 2091.32 681.75 2092.32 687.75C2093.32 693.75 2093.57 701.25 2093.07 710.25C2092.57 719.25 2090.07 730 2085.57 742.5C2081.07 755 2074.57 766.25 2066.07 776.25C2057.57 786.25 2048.82 794 2039.82 799.5C2030.82 805 2021.82 809 2012.82 811.5C2003.82 814 1941.07 815.25 1824.57 815.25C1766.32 815.25 1708.07 815.25 1649.82 815.25C1657.07 808 1664.32 800.75 1671.57 793.5C1686.07 779 1698.32 763 1708.32 745.5C1718.32 728 1725.57 711.25 1730.07 695.25C1734.57 679.25 1737.07 658.5 1737.57 633C1738.07 607.5 1766.32 594.5 1822.32 594C1878.32 593.5 1919.32 593.25 1945.32 593.25ZM1343.82 594.75C1374.32 594.75 1404.82 594.75 1435.32 594.75C1465.82 594.75 1496.32 594.75 1526.82 594.75C1526.82 607 1526.82 619.25 1526.82 631.5C1526.82 656 1524.57 677.25 1520.07 695.25C1515.57 713.25 1510.07 727.75 1503.57 738.75C1497.07 749.75 1491.32 758 1486.32 763.5C1481.32 769 1475.32 774.5 1468.32 780C1461.32 785.5 1453.57 790.5 1445.07 795C1436.57 799.5 1425.57 803.75 1412.07 807.75C1398.57 811.75 1383.82 814.25 1367.82 815.25C1359.82 815.75 1351.82 816.25 1343.82 816.75C1343.82 779.75 1343.82 742.75 1343.82 705.75C1343.82 668.75 1343.82 631.75 1343.82 594.75ZM1345.32 923.25C1453.57 923.5 1561.82 923.75 1670.07 924C1886.57 924.5 1998.57 925.75 2006.07 927.75C2013.57 929.75 2020.82 932.5 2027.82 936C2034.82 939.5 2044.07 946.75 2055.57 957.75C2067.07 968.75 2075.82 981 2081.82 994.5C2087.82 1008 2091.32 1017.75 2092.32 1023.75C2093.32 1029.75 2093.57 1037.75 2093.07 1047.75C2092.57 1057.75 2090.57 1068.25 2087.07 1079.25C2083.57 1090.25 2079.57 1099.25 2075.07 1106.25C2070.57 1113.25 2063.32 1121.25 2053.32 1130.25C2043.32 1139.25 2031.32 1146.5 2017.32 1152C2003.32 1157.5 1887.57 1160.5 1670.07 1161C1561.32 1161.25 1452.57 1161.5 1343.82 1161.75C1344.07 1122 1344.32 1082.25 1344.57 1042.5C1344.82 1002.75 1345.07 963 1345.32 923.25ZM2406.57 1199.25C2403.07 1200.25 2399.07 1202.75 2394.57 1206.75C2390.07 1210.75 2386.82 1215.25 2384.82 1220.25C2382.82 1225.25 2381.82 1229.75 2381.82 1233.75C2381.82 1237.75 2382.57 1242 2384.07 1246.5C2385.57 1251 2387.57 1254.75 2390.07 1257.75C2392.57 1260.75 2396.32 1263.5 2401.32 1266C2406.32 1268.5 2411.82 1269.75 2417.82 1269.75C2423.82 1269.75 2428.57 1269 2432.07 1267.5C2435.57 1266 2439.07 1263.5 2442.57 1260C2446.07 1256.5 2448.82 1252 2450.82 1246.5C2452.82 1241 2453.57 1235.75 2453.07 1230.75C2452.57 1225.75 2450.07 1220 2445.57 1213.5C2441.07 1207 2436.32 1202.75 2431.32 1200.75C2426.32 1198.75 2421.82 1197.75 2417.82 1197.75C2413.82 1197.75 2410.07 1198.25 2406.57 1199.25ZM2417.07 1205.25C2421.57 1205.25 2425.57 1206 2429.07 1207.5C2432.57 1209 2436.07 1212 2439.57 1216.5C2443.07 1221 2445.07 1225.75 2445.57 1230.75C2446.07 1235.75 2445.57 1240.25 2444.07 1244.25C2442.57 1248.25 2439.07 1252.25 2433.57 1256.25C2428.07 1260.25 2421.57 1261.75 2414.07 1260.75C2406.57 1259.75 2401.57 1258.25 2399.07 1256.25C2396.57 1254.25 2394.32 1251.25 2392.32 1247.25C2390.32 1243.25 2389.57 1238 2390.07 1231.5C2390.57 1225 2392.57 1219.75 2396.07 1215.75C2399.57 1211.75 2402.82 1209 2405.82 1207.5C2408.82 1206 2412.57 1205.25 2417.07 1205.25ZM2405.82 1234.5C2405.82 1240.25 2405.82 1246 2405.82 1251.75C2407.07 1251.75 2408.32 1251.75 2409.57 1251.75C2410.82 1251.75 2412.07 1251.75 2413.32 1251.75C2413.32 1249.75 2413.32 1247.75 2413.32 1245.75C2413.32 1243.75 2413.32 1241.75 2413.32 1239.75C2414.82 1241.75 2416.32 1243.75 2417.82 1245.75C2420.82 1249.75 2423.82 1251.75 2426.82 1251.75C2428.32 1251.75 2429.82 1251.75 2431.32 1251.75C2430.07 1250 2428.82 1248.25 2427.57 1246.5C2425.07 1243 2425.07 1239.75 2427.57 1236.75C2430.07 1233.75 2430.82 1230 2429.82 1225.5C2428.82 1221 2424.57 1218.5 2417.07 1218C2413.32 1217.75 2409.57 1217.5 2405.82 1217.25C2405.82 1223 2405.82 1228.75 2405.82 1234.5ZM2413.32 1223.25C2414.82 1223.5 2416.32 1223.75 2417.82 1224C2420.82 1224.5 2422.32 1226 2422.32 1228.5C2422.32 1229.75 2422.32 1231 2422.32 1232.25C2420.82 1232.25 2419.32 1232.25 2417.82 1232.25C2416.32 1232.25 2414.82 1232.25 2413.32 1232.25C2413.32 1230.75 2413.32 1229.25 2413.32 1227.75C2413.32 1226.25 2413.32 1224.75 2413.32 1223.25Z" fill="#005bbb" fill-rule="nonzero" opacity="1" stroke="none"/>
</g>
</svg>
