<?xml version="1.0" encoding="UTF-8" standalone="no"?>
<!DOCTYPE svg PUBLIC "-//W3C//DTD SVG 1.1//EN" "http://www.w3.org/Graphics/SVG/1.1/DTD/svg11.dtd">
<!-- Created with Vectornator (http://vectornator.io/) -->
<svg height="100%" stroke-miterlimit="10" style="fill-rule:nonzero;clip-rule:evenodd;stroke-linecap:round;stroke-linejoin:round;" version="1.1" viewBox="0 0 3518 1292" width="100%" xml:space="preserve" xmlns="http://www.w3.org/2000/svg" xmlns:xlink="http://www.w3.org/1999/xlink">
<defs/>
<clipPath id="ArtboardFrame">
<rect height="1292" width="3518" x="0" y="0"/>
</clipPath>
<g clip-path="url(#ArtboardFrame)" id="Layer-1">
<g opacity="1">
<path d="M2445.06 136.907C2447.83 136.901 2450.59 136.895 2453.36 136.889C2459.1 136.878 2464.85 136.875 2470.6 136.876C2476.38 136.876 2482.16 136.864 2487.95 136.84C2532.32 136.659 2576.21 137.74 2620.14 144.678C2621.34 144.865 2622.55 145.052 2623.79 145.245C2682.98 154.512 2744.72 169.905 2791.53 209.321C2793.62 210.988 2793.62 210.988 2795.76 212.688C2820.6 233.327 2837.14 263.419 2840.78 295.512C2846.42 368.219 2806.44 430.507 2763.39 485.484C2762.23 486.645 2761.07 487.806 2759.87 489.002C2813.85 489.002 2867.84 489.002 2923.46 489.002C2923.46 602.194 2923.46 715.385 2923.46 832.007C3120.24 832.007 3317.02 832.007 3519.76 832.007C3519.76 870.898 3519.76 909.79 3519.76 949.86C3251 949.86 2982.24 949.86 2705.34 949.86C2704.76 818.093 2704.18 686.327 2703.58 550.567C2697.2 556.952 2690.81 563.337 2684.23 569.916C2677.31 576.072 2677.31 576.072 2673.94 578.945C2670.1 582.279 2666.37 585.714 2662.65 589.172C2637.61 612.401 2637.61 612.401 2625.11 620.323C2620.41 624.931 2619.86 627.357 2619.73 633.824C2619.76 635.683 2619.76 635.683 2619.79 637.578C2619.77 638.906 2619.76 640.234 2619.74 641.602C2619.7 646.053 2619.73 650.503 2619.75 654.954C2619.74 658.144 2619.72 661.334 2619.69 664.524C2619.64 673.187 2619.65 681.85 2619.66 690.514C2619.67 699.566 2619.62 708.619 2619.59 717.671C2619.52 734.815 2619.5 751.959 2619.49 769.102C2619.48 792.268 2619.4 815.433 2619.33 838.598C2619.21 875.099 2619.19 911.6 2619.15 948.101C2549.49 948.101 2479.84 948.101 2408.07 948.101C2407.49 891.215 2406.91 834.329 2406.31 775.719C2397.02 781.524 2387.74 787.328 2378.17 793.309C2371.92 797.078 2365.66 800.827 2359.37 804.523C2357.74 805.483 2356.1 806.444 2354.42 807.434C2259.21 863.331 2161.25 915.669 2060.63 961.156C2053.61 964.342 2046.61 967.571 2039.61 970.803C2009.02 984.913 1978.31 998.669 1947.24 1011.7C1943.44 1013.29 1939.65 1014.89 1935.86 1016.48C1859.54 1048.61 1782.37 1078.35 1704.47 1106.41C1702.92 1106.97 1701.37 1107.53 1699.78 1108.1C1562.76 1157.51 1422.34 1198.12 1280.55 1231.3C1279.01 1231.66 1277.47 1232.02 1275.88 1232.39C1133.22 1265.73 983.416 1293.09 836.398 1293.16C833.551 1293.17 830.704 1293.17 827.858 1293.18C821.938 1293.19 816.018 1293.19 810.098 1293.19C804.131 1293.19 798.164 1293.2 792.197 1293.23C757.815 1293.36 723.755 1293.1 689.528 1289.35C688.28 1289.21 687.033 1289.08 685.747 1288.94C678.849 1288.19 671.986 1287.28 665.122 1286.27C663.099 1285.97 661.076 1285.67 658.991 1285.37C587.979 1274.48 508.23 1254.28 462.404 1194.11C438.795 1158.23 434.537 1120.66 442.76 1078.96C452.831 1036.6 475.675 999.824 501.016 965.043C502.934 962.368 504.767 959.634 506.592 956.896C510.421 956.261 510.421 956.261 515.226 956.297C517.92 956.298 517.92 956.298 520.668 956.298C522.612 956.325 524.556 956.353 526.559 956.381C528.546 956.388 530.532 956.396 532.578 956.403C538.941 956.433 545.304 956.499 551.666 956.566C555.972 956.593 560.278 956.617 564.584 956.638C575.157 956.697 585.729 956.785 596.301 956.896C593.919 963.197 591.134 968.3 587.201 973.789C570.039 997.832 555.334 1026.46 548.808 1055.4C548.42 1057.09 548.033 1058.79 547.633 1060.53C541.589 1091.24 545.135 1121.33 560.949 1148.46C579.362 1175.62 605.576 1191.69 634.999 1204.91C636.197 1205.45 637.396 1205.99 638.63 1206.55C684.469 1226.73 736.645 1234.26 786.273 1238.34C788.054 1238.49 789.835 1238.64 791.67 1238.8C816.185 1240.64 840.747 1240.45 865.318 1240.42C867.081 1240.42 867.081 1240.42 868.879 1240.42C905.388 1240.41 941.62 1239.85 978.004 1236.58C980.605 1236.36 983.205 1236.14 985.806 1235.92C1163.57 1220.82 1339.9 1181.13 1569.03 1111.69C1570.81 1111.12 1572.59 1110.56 1574.43 1109.97C1681.59 1075.92 1787.3 1037.51 1890.92 993.835C1892.26 993.273 1893.59 992.712 1894.96 992.133C1952.9 967.698 2010.1 941.806 2066.82 914.68C2068.14 914.052 2069.45 913.425 2070.8 912.778C2098.85 899.357 2126.82 885.843 2154.21 871.118C2158.75 868.706 2163.31 866.345 2167.87 863.992C2188.47 853.371 2208.77 842.334 2228.89 830.839C2235.83 826.876 2242.8 822.967 2249.8 819.103C2269.59 808.163 2289.15 796.918 2308.47 785.174C2310.37 784.02 2312.26 782.866 2314.22 781.678C2343.11 764.009 2371.61 745.728 2399.9 727.107C2404.89 723.823 2409.89 720.551 2414.9 717.28C2432.14 705.965 2449.01 694.369 2465.36 681.805C2471.44 677.141 2477.66 672.711 2483.93 668.31C2496.51 659.393 2508.62 649.931 2520.65 640.276C2522.27 638.977 2523.89 637.677 2525.57 636.339C2545.86 619.918 2565.48 602.683 2584.6 584.91C2587.93 581.823 2591.26 578.749 2594.6 575.674C2597.03 573.425 2599.46 571.176 2601.89 568.927C2603.05 567.856 2604.21 566.786 2605.41 565.684C2606.49 564.684 2607.56 563.684 2608.67 562.653C2609.63 561.763 2610.6 560.873 2611.59 559.956C2614.09 557.622 2614.09 557.622 2615.63 554.085C2616.79 554.085 2617.95 554.085 2619.15 554.085C2619.77 552.592 2619.77 552.592 2620.41 551.069C2623.19 546.129 2626.59 542.926 2630.69 539.024C2638.43 531.443 2645.35 523.547 2652.1 515.085C2656.15 510.035 2660.34 505.132 2664.56 500.216C2690.15 469.423 2711.35 435.41 2724.69 397.534C2725.09 396.425 2725.48 395.317 2725.89 394.175C2735.33 366.449 2736.99 331.292 2724.69 304.307C2723.99 302.683 2723.28 301.06 2722.55 299.387C2712.24 278.223 2694.97 262.371 2675.44 249.778C2673.9 248.755 2672.36 247.733 2670.77 246.679C2632.92 223.022 2587.08 212.79 2543.51 205.803C2541.98 205.556 2540.45 205.309 2538.87 205.055C2404.92 184.299 2262.12 199.61 2129.52 223.187C2128.04 223.45 2126.56 223.713 2125.04 223.984C2123.8 224.212 2122.56 224.439 2121.28 224.674C2117.84 225.152 2117.84 225.152 2110.8 225.152C2111.93 213.497 2113.81 202.202 2116.19 190.742C2116.51 189.135 2116.84 187.529 2117.18 185.873C2117.98 181.961 2118.78 178.051 2119.59 174.141C2197.54 158.772 2276.27 147.974 2355.41 141.16C2356.62 141.056 2357.83 140.951 2359.08 140.844C2387.73 138.412 2416.31 136.921 2445.06 136.907Z" fill="#000000" fill-opacity="0.968627" fill-rule="nonzero" opacity="1" stroke="none"/>
<path d="M898.849 489.002C1040.2 488.75 1181.54 489.057 1322.89 489.687C1337.66 489.753 1352.43 489.815 1367.21 489.876C1385.54 489.952 1403.86 490.034 1422.19 490.122C1431.63 490.168 1441.07 490.211 1450.51 490.249C1472.94 490.341 1495.37 490.496 1517.79 490.712C1523.62 490.764 1529.44 490.805 1535.27 490.845C1545.51 490.918 1555.76 491.03 1566 491.165C1569.91 491.211 1573.82 491.246 1577.74 491.269C1621.59 491.543 1650.71 502.784 1682.81 533.527C1703.86 555.081 1714.59 578.967 1714.92 609.054C1714.96 611.297 1715.01 613.541 1715.05 615.852C1715.53 652.127 1708.51 677.898 1686.88 707.118C1687.84 708.336 1687.84 708.336 1688.82 709.578C1702.37 727.155 1715.07 745.735 1715.34 768.597C1715.36 770.283 1715.38 771.97 1715.4 773.707C1715.42 776.417 1715.42 776.417 1715.44 779.182C1715.46 781.067 1715.47 782.953 1715.49 784.896C1715.51 788.888 1715.53 792.88 1715.54 796.872C1715.56 800.921 1715.6 804.971 1715.65 809.02C1716.12 845.204 1712.71 874.696 1686.88 902.491C1652.05 936.093 1614.62 950.666 1567.01 950.621C1563.62 950.636 1560.23 950.655 1556.83 950.675C1547.59 950.723 1538.34 950.74 1529.1 950.75C1519.18 950.767 1509.26 950.813 1499.34 950.856C1480.1 950.934 1460.85 950.984 1441.61 951.024C1426.07 951.057 1410.53 951.102 1395 951.156C1392.79 951.163 1390.59 951.171 1388.32 951.179C1383.85 951.194 1379.39 951.209 1374.93 951.225C1216.24 951.765 1057.54 951.829 898.849 951.619C898.808 914.495 898.777 877.372 898.758 840.248C898.749 823.013 898.736 805.777 898.716 788.541C898.699 773.524 898.687 758.507 898.683 743.49C898.681 735.533 898.676 727.577 898.663 719.62C898.651 712.14 898.647 704.66 898.65 697.18C898.65 694.426 898.646 691.673 898.639 688.919C898.631 685.176 898.633 681.434 898.637 677.691C898.636 675.591 898.634 673.491 898.633 671.328C898.849 666.661 898.849 666.661 900.608 664.902C903.863 664.73 907.125 664.684 910.384 664.686C912.52 664.682 914.656 664.679 916.856 664.675C919.257 664.68 921.658 664.685 924.058 664.69C926.585 664.69 929.111 664.688 931.638 664.686C938.613 664.682 945.588 664.689 952.564 664.698C960.073 664.705 967.583 664.703 975.093 664.702C988.115 664.701 1001.14 664.706 1014.16 664.716C1032.99 664.73 1051.81 664.735 1070.64 664.737C1101.18 664.741 1131.73 664.753 1162.27 664.769C1191.95 664.785 1221.63 664.798 1251.31 664.805C1254.05 664.806 1254.05 664.806 1256.84 664.807C1266.01 664.809 1275.18 664.811 1284.35 664.813C1360.48 664.832 1436.61 664.863 1512.74 664.902C1512.74 644.005 1512.74 623.108 1512.74 601.578C1455.23 601.245 1397.71 601.029 1340.2 600.993C1333.39 600.988 1326.57 600.983 1319.76 600.977C1318.4 600.976 1317.05 600.974 1315.65 600.973C1293.78 600.951 1271.92 600.843 1250.05 600.701C1227.56 600.558 1205.07 600.51 1182.58 600.547C1168.73 600.567 1154.89 600.515 1141.05 600.368C1130.38 600.263 1119.71 600.291 1109.04 600.364C1104.7 600.374 1100.36 600.344 1096.03 600.265C1063.97 599.722 1042.71 607.529 1015.91 625.045C1009.93 628.935 1003.8 632.502 997.635 636.078C994.055 638.24 990.48 640.408 986.909 642.585C983.229 644.814 979.548 647.043 975.867 649.27C974.323 650.21 972.779 651.149 971.188 652.117C965.854 655.301 962.923 656.325 956.751 656.307C954.533 656.306 954.533 656.306 952.27 656.306C949.873 656.293 949.873 656.293 947.428 656.279C945.793 656.276 944.158 656.274 942.474 656.271C937.24 656.261 932.007 656.239 926.773 656.217C923.23 656.208 919.687 656.2 916.144 656.193C907.447 656.173 898.751 656.143 890.054 656.107C890.201 657.454 890.349 658.8 890.501 660.188C894.045 697.343 894.045 697.343 887.717 707.264C881.38 713.019 873.719 716.099 865.883 719.336C859.096 722.503 853.402 727.063 847.508 731.634C828.774 745.816 828.774 745.816 823.212 745.816C816.321 696.013 816.321 696.013 826.734 680.897C836.684 671.964 848.653 666.492 860.724 660.973C870.593 656.373 879.651 650.423 888.844 644.622C893.929 641.439 899.07 638.351 904.215 635.267C905.222 634.663 906.229 634.059 907.266 633.436C924.297 623.237 941.462 613.263 958.655 603.337C956.111 603.271 956.111 603.271 953.516 603.203C947.245 603.038 940.974 602.862 934.703 602.682C931.985 602.606 929.267 602.532 926.549 602.462C922.649 602.361 918.751 602.249 914.852 602.135C913.63 602.105 912.407 602.076 911.148 602.045C902.567 601.778 902.567 601.778 900.608 599.819C900.391 596.366 900.295 592.906 900.247 589.447C900.194 586.119 900.194 586.119 900.141 582.724C900.111 580.285 900.081 577.845 900.051 575.406C900.015 572.924 899.978 570.442 899.941 567.96C899.843 561.416 899.757 554.872 899.672 548.328C899.584 541.654 899.486 534.981 899.388 528.308C899.199 515.206 899.021 502.104 898.849 489.002ZM1335.35 760.243C1325.75 760.294 1316.16 760.342 1306.57 760.391C1288.55 760.483 1270.53 760.577 1252.51 760.671C1231.93 760.779 1211.35 760.885 1190.77 760.99C1148.58 761.207 1106.39 761.426 1064.19 761.647C1064.19 787.188 1064.19 812.728 1064.19 839.043C1206.41 839.043 1348.63 839.043 1495.15 839.043C1495.15 812.922 1495.15 786.801 1495.15 759.888C1441.88 759.852 1388.62 759.958 1335.35 760.243Z" fill="#000000" fill-opacity="0.972549" fill-rule="nonzero" opacity="1" stroke="none"/>
<path d="M601.578 489.002C620.758 488.961 639.938 488.93 659.118 488.911C668.031 488.902 676.944 488.89 685.857 488.869C694.513 488.85 703.17 488.84 711.827 488.835C715.073 488.832 718.32 488.826 721.566 488.816C752.539 488.727 783.466 489.716 814.417 490.761C814.54 537.382 814.633 584.003 814.69 630.623C814.718 652.272 814.755 673.92 814.815 695.568C814.868 714.443 814.902 733.318 814.914 752.193C814.92 762.181 814.936 772.169 814.975 782.158C815.011 791.572 815.022 800.987 815.014 810.402C815.015 813.844 815.026 817.287 815.046 820.729C815.232 853.787 811.676 882.093 787.812 907.314C743.814 948.555 688.588 949.173 632.185 948.918C623.683 948.887 615.181 948.898 606.679 948.903C591.985 948.907 577.291 948.885 562.596 948.845C541.351 948.787 520.106 948.769 498.861 948.761C464.385 948.745 429.908 948.698 395.431 948.632C361.96 948.567 328.488 948.517 295.017 948.487C292.929 948.486 290.842 948.484 288.691 948.482C272.362 948.467 256.033 948.453 239.704 948.44C159.802 948.374 79.9014 948.232 0 948.101C0 797.179 0 646.257 0 490.761C172.382 490.761 172.382 490.761 209.321 492.52C209.432 542.141 209.277 591.756 208.936 641.375C208.923 643.289 208.923 643.289 208.91 645.241C208.76 667.04 208.6 688.838 208.441 710.636C208.151 751.269 207.861 791.902 207.562 833.766C338.168 833.766 468.773 833.766 603.337 833.766C603.047 802.022 602.757 770.277 602.457 737.571C602.289 718.396 602.121 699.221 601.97 680.046C601.961 678.897 601.951 677.748 601.942 676.565C601.592 632.257 601.421 587.95 601.468 543.641C601.47 542.201 601.471 540.76 601.473 539.276C601.492 522.518 601.525 505.76 601.578 489.002Z" fill="#000000" fill-opacity="0.984314" fill-rule="nonzero" opacity="1" stroke="none"/>
<path d="M1808.25 490.761C1983.61 490.406 1983.61 490.406 2056.9 490.332C2073.67 490.314 2090.45 490.297 2107.22 490.278C2109.32 490.276 2111.42 490.273 2113.59 490.271C2147.49 490.233 2181.4 490.163 2215.3 490.082C2250.12 490 2284.93 489.951 2319.75 489.933C2341.22 489.921 2362.69 489.883 2384.15 489.812C2398.89 489.765 2413.63 489.751 2428.37 489.763C2436.86 489.768 2445.35 489.76 2453.85 489.713C2461.64 489.669 2469.44 489.668 2477.23 489.698C2480.03 489.701 2482.83 489.691 2485.63 489.663C2524.32 489.3 2556.69 502.603 2584.58 529.671C2591.74 536.721 2598.41 543.477 2603.32 552.326C2602.69 558.323 2600.33 561.236 2596.11 565.388C2595 566.493 2593.89 567.597 2592.74 568.735C2590.96 570.463 2590.96 570.463 2589.14 572.225C2587.93 573.416 2586.71 574.607 2585.46 575.834C2577.58 583.535 2569.55 590.982 2561.1 598.06C2558.36 600.428 2555.62 602.796 2552.89 605.166C2528.42 626.271 2503.51 646.478 2477.31 665.41C2473.24 668.361 2469.17 671.332 2465.11 674.309C2451.52 684.243 2437.79 693.915 2423.79 703.27C2422.42 704.189 2421.05 705.107 2419.63 706.054C2410.06 712.395 2410.06 712.395 2408.07 712.395C2408.07 677.567 2408.07 642.739 2408.07 606.855C2279.21 606.855 2150.34 606.855 2017.57 606.855C2017.57 713.661 2017.57 820.468 2017.57 930.511C1935.6 971.499 1958.29 951.619 1808.25 951.619C1808.25 799.536 1808.25 647.453 1808.25 490.761Z" fill="#000000" fill-opacity="0.980392" fill-rule="nonzero" opacity="1" stroke="none"/>
<path d="M1755.48 0C1762.6 2.76553 1766.93 7.83039 1771.86 13.4124C1773.15 14.8481 1773.15 14.8481 1774.47 16.3128C1776.95 19.074 1779.41 21.8476 1781.87 24.626C1782.94 25.8323 1784.02 27.0386 1785.12 28.2814C1789.79 33.5674 1794.37 38.9215 1798.94 44.2911C1807.57 54.4178 1816.24 64.4611 1825.29 74.2078C1831.22 80.5848 1836.89 87.0922 1842.33 93.8866C1849.45 102.737 1857.08 110.977 1864.86 119.236C1872.24 127.111 1879.12 135.239 1885.82 143.702C1889.08 147.652 1892.52 151.235 1896.2 154.792C1893.48 161.624 1889.16 165.398 1883.67 170.183C1882.07 171.589 1880.47 172.995 1878.82 174.443C1877.59 175.504 1876.36 176.566 1875.09 177.659C1876.84 180.271 1876.84 180.271 1878.61 182.936C1883.97 181.045 1887.93 179.038 1892.57 175.68C1898.96 171.77 1901.19 170.802 1908.51 172.382C1912.83 175.366 1916.78 178.56 1920.74 182.002C1924.3 185.221 1924.3 185.221 1929.62 184.695C1933.75 181.593 1933.75 181.593 1937.87 177.659C1939.29 176.353 1940.71 175.047 1942.18 173.701C1943.26 172.685 1944.34 171.67 1945.45 170.623C1944.09 168.609 1944.09 168.609 1942.71 166.555C1941.87 164.995 1941.04 163.435 1940.18 161.828C1941.94 156.551 1941.94 156.551 1945.45 154.462C1953.64 152.244 1961.89 150.944 1969.87 154.51C1975.47 158.517 1977.17 161.998 1979.09 168.534C1979.62 176.855 1976.12 183.057 1971.84 189.972C1964.8 189.972 1964.8 189.972 1957.77 184.695C1951.38 189.339 1945 193.983 1938.42 198.767C1940.16 201.053 1941.9 203.338 1943.69 205.693C1948.3 212.72 1950.78 218.063 1950.28 226.526C1947.65 234.376 1941.15 239.385 1934.9 244.501C1936.06 246.242 1937.22 247.984 1938.42 249.778C1947.93 247.104 1954.22 240.501 1961.28 233.947C1968.64 236.76 1973.19 242.194 1978.33 247.909C1979.26 248.934 1980.19 249.959 1981.16 251.015C1988.1 258.692 1994.64 266.643 2001.12 274.713C2007.62 282.514 2014.57 289.876 2021.49 297.298C2029.06 305.421 2036.29 313.819 2043.5 322.268C2045.3 324.38 2047.1 326.492 2048.91 328.603C2049.82 329.669 2050.73 330.736 2051.66 331.834C2057.3 338.415 2063.05 344.872 2068.91 351.25C2076.12 359.09 2082.88 367.202 2089.51 375.533C2093.22 380.155 2093.22 380.155 2098.18 384.465C2102 388.739 2102 388.739 2102.18 392.374C2099.54 397.015 2096.35 399.443 2092.11 402.701C2083.63 409.386 2075.4 416.27 2067.26 423.369C2060.86 428.951 2060.86 428.951 2057.66 431.707C2055.48 433.623 2053.34 435.583 2051.22 437.576C2050.16 438.559 2049.1 439.541 2048 440.554C2047.05 441.454 2046.11 442.353 2045.13 443.28C2042.2 445.027 2042.2 445.027 2038.52 444.644C2033.58 442.619 2031.56 439.372 2028.35 435.133C2021.62 426.581 2014.51 418.616 2007.02 410.726C1998.59 401.817 1990.65 392.718 1982.99 383.125C1978.02 377.161 1972.76 371.522 1967.44 365.872C1959.31 357.236 1951.67 348.379 1944.25 339.116C1937.8 331.351 1930.88 324.034 1924 316.654C1899.72 290.607 1899.72 290.607 1899.72 284.958C1903.47 281.813 1907.23 278.857 1911.15 275.943C1912.24 275.12 1913.33 274.297 1914.46 273.449C1917.16 271.412 1919.87 269.389 1922.59 267.368C1919.1 263.014 1919.1 263.014 1915.55 258.573C1912.33 261.076 1909.12 263.579 1905.9 266.082C1903.08 268.276 1900.25 270.469 1897.43 272.66C1889.89 278.507 1882.39 284.381 1874.92 290.317C1873.49 291.446 1872.07 292.575 1870.6 293.738C1867.84 295.921 1865.09 298.113 1862.35 300.316C1860.47 301.795 1860.47 301.795 1858.56 303.304C1857.46 304.179 1856.36 305.054 1855.23 305.955C1852.23 307.825 1852.23 307.825 1846.95 307.825C1844.34 305.71 1844.34 305.71 1841.6 302.734C1840.59 301.641 1839.58 300.549 1838.53 299.424C1836.93 297.651 1836.93 297.651 1835.3 295.842C1834.2 294.647 1833.1 293.453 1831.98 292.222C1821.13 280.306 1810.83 267.998 1801.22 255.055C1821.29 236.305 1841.78 218.23 1862.78 200.526C1861.62 198.204 1860.46 195.882 1859.26 193.49C1850.54 193.49 1845.65 200.413 1839.37 206.03C1834.64 209.321 1834.64 209.321 1831.12 208.952C1825.11 206.577 1821.68 201.244 1817.71 196.348C1815.83 194.093 1813.95 191.839 1812.07 189.587C1811.13 188.463 1810.19 187.338 1809.23 186.179C1805.32 181.542 1801.25 177.074 1797.15 172.602C1788.49 163.144 1780.03 153.542 1771.7 143.791C1762.31 132.805 1752.87 121.897 1743.17 111.188C1733.28 100.251 1723.73 89.0166 1714.15 77.8091C1706.92 69.3709 1699.59 61.0304 1692.16 52.77C1711.33 32.9843 1733.39 16.3501 1755.48 0Z" fill="#000000" fill-opacity="0.952941" fill-rule="nonzero" opacity="1" stroke="none"/>
<path d="M1780.11 260.332C1783.27 263.857 1783.27 263.857 1786.7 268.357C1792.28 275.56 1798.07 282.369 1804.29 289.019C1806.49 291.994 1806.49 291.994 1806.49 297.271C1804.39 297.849 1804.39 297.849 1802.24 298.439C1648.1 341.012 1497.39 396.587 1350.55 459.7C1347.94 460.819 1345.32 461.928 1342.69 463.026C1336.68 465.566 1330.89 468.197 1325.22 471.442C1302.89 483.698 1279.03 481.642 1254.19 481.052C1248.23 480.925 1242.26 480.87 1236.29 480.808C1224.66 480.674 1213.03 480.469 1201.4 480.207C1201.4 479.046 1201.4 477.885 1201.4 476.689C1211.02 472.349 1220.64 468.021 1230.27 463.697C1234.74 461.686 1239.2 459.673 1243.67 457.655C1397.16 388.332 1554.58 326.712 1759.17 263.095C1761.44 262.414 1763.7 261.709 1765.95 260.982C1774.26 258.382 1774.26 258.382 1780.11 260.332Z" fill="#000000" fill-opacity="0.933333" fill-rule="nonzero" opacity="1" stroke="none"/>
<path d="M2045.72 66.842C2074.62 90.1921 2093.54 121.364 2098.49 158.31C2102.05 193.972 2092.58 228.502 2070.89 257.144C2066.31 262.622 2061.46 267.726 2056.27 272.645C2054.32 274.583 2052.38 276.525 2050.44 278.472C2048.88 280.032 2047.32 281.592 2045.72 283.199C2040.44 281.44 2040.44 281.44 2038.63 278.424C2038.68 274.404 2038.68 274.404 2042.69 269.78C2044.57 268.044 2046.45 266.325 2048.36 264.62C2071.89 242.299 2085.82 212.667 2086.8 180.089C2087.13 144.554 2075.21 112.348 2050.97 86.0124C2023.33 59.6145 1988.55 48.0131 1950.99 48.4279C1924.16 49.3201 1896.64 57.2555 1875.42 74.3452C1871.58 77.396 1871.58 77.396 1867.51 76.9562C1866.53 76.5209 1865.55 76.0855 1864.54 75.637C1863.96 73.3151 1863.38 70.9932 1862.78 68.601C1918.85 29.7224 1989.63 23.6211 2045.72 66.842Z" fill="#000000" fill-opacity="0.733333" fill-rule="nonzero" opacity="1" stroke="none"/>
<path d="M1996.46 80.914C1998.77 81.8391 1998.77 81.8391 2001.13 82.7829C2013.26 88.1636 2022.32 96.2314 2031.64 105.54C2032.79 106.665 2033.94 107.789 2035.11 108.948C2053.3 128.137 2060.7 152.921 2060.4 178.823C2059.37 210.391 2044.52 233.311 2022.85 255.055C2019.44 253.626 2019.44 253.626 2015.81 251.537C2015.23 249.796 2014.65 248.054 2014.05 246.26C2014.95 245.555 2015.84 244.85 2016.76 244.123C2033.88 229.987 2044.06 212.05 2047.48 189.972C2049.05 162.082 2044.75 137.61 2026.04 115.764C2006.92 95.6026 1983.51 85.0153 1955.79 83.7724C1934.63 84.2518 1915.82 91.0937 1897.96 102.022C1895.63 103.22 1893.29 104.402 1890.92 105.54C1888.29 103.121 1888.29 103.121 1885.65 100.263C1885.65 99.1021 1885.65 97.9411 1885.65 96.745C1917.26 72.5965 1959.39 64.8809 1996.46 80.914Z" fill="#000000" fill-opacity="0.737255" fill-rule="nonzero" opacity="1" stroke="none"/>
<path d="M2000.24 132.234C2011.52 143.327 2017.28 157.492 2017.68 173.145C2016.84 189.987 2008.66 204.706 1996.46 216.137C1992.95 218.116 1992.95 218.116 1988.99 217.566C1987.97 217.167 1986.96 216.768 1985.91 216.357C1985.91 214.035 1985.91 211.713 1985.91 209.321C1987.18 208.378 1988.45 207.434 1989.76 206.463C1998.61 198.99 2003.4 188.162 2005.26 176.779C2006.05 164.475 2002.03 153.886 1994.71 144.238C1994.71 143.077 1994.71 141.916 1994.71 140.72C1993.19 139.962 1993.19 139.962 1991.63 139.188C1989.12 137.926 1986.6 136.658 1984.09 135.381C1982.91 134.785 1981.74 134.188 1980.52 133.574C1979.34 132.973 1978.16 132.372 1976.94 131.753C1966.56 126.83 1955.02 126.704 1944.04 129.795C1936.66 132.662 1930.56 135.781 1924.35 140.72C1922.02 139.559 1919.7 138.398 1917.31 137.202C1917.91 132.26 1918.64 130.526 1922.53 127.294C1948.85 111.777 1975.92 112.964 2000.24 132.234Z" fill="#000000" fill-opacity="0.733333" fill-rule="nonzero" opacity="1" stroke="none"/>
</g>
</g>
</svg>
